<?xml version="1.0" standalone="no"?>
<!DOCTYPE svg PUBLIC "-//W3C//DTD SVG 1.1//EN" "http://www.w3.org/Graphics/SVG/1.1/DTD/svg11.dtd" >
<svg xmlns="http://www.w3.org/2000/svg">
<metadata>Generated by IcoMoon</metadata>
<defs>
<font id="icomoon" horiz-adv-x="1024">
<font-face units-per-em="1024" ascent="1024" descent="0" />
<missing-glyph horiz-adv-x="1024" />
<glyph unicode="&#x20;" d="" horiz-adv-x="512" />
<glyph unicode="&#xe600;" d="M731.429 292.571h170.667c61.659 0 73.143 12.898 73.143 73.143v512c0 58.758-14.385 73.143-73.143 73.143h-780.19c-60.221 0-73.143-12.922-73.143-73.143v-511.293c0-60.197 9.996-73.85 73.143-73.85h316.952c0 0 233.131-213.48 262.095-239.226 10.289-9.143 31.232-4.194 30.476 19.797v219.429zM195.048 512h512v-73.143h-512v73.143zM195.048 658.286h316.952v-73.143h-316.952v73.143zM195.048 804.571h633.905v-73.143h-633.905v73.143z" />
<glyph unicode="&#xe601;" d="M44.495 153.381l108.617-108.52c27.648-27.672 38.424-26.941 65.317 0l138.752 138.581 130.438-130.536v434.712h-435.078l130.658-130.341-138.703-138.679c-26.429-26.356-27.209-38.132 0-65.219zM979.529 870.644l-108.617 108.52c-27.648 27.648-38.424 26.917-65.317 0l-138.728-138.606-130.487 130.56v-434.712h435.102l-130.658 130.365 138.703 138.606c26.429 26.38 27.136 38.156 0 65.268z" />
<glyph unicode="&#xe602;" d="M816.762 182.857c89.941 0 170.667 86.040 170.667 180.638 0 88.966-64.61 170.667-146.773 178.956 1.463 11.459 2.194 23.893 2.194 36.328 0 146.042-112.908 264.29-252.587 264.29-111.177 0-205.288-74.85-239.397-178.956-17.335 5.12-35.621 6.583-54.15 7.802-137.021 9.265-203.337-37.547-203.337-214.357 0-11.435 0.707-22.43 2.658-32.914-48.006-11.922-83.846-57.027-83.846-110.641 0-62.44 61.928-131.145 121.905-131.145h682.667z" />
<glyph unicode="&#xe603;" d="M512 902.095c-269.312 0-487.619-180.102-487.619-402.286s218.307-402.286 487.619-402.286 487.619 180.102 487.619 402.286c0 222.184-218.307 402.286-487.619 402.286z" />
<glyph unicode="&#xe604;" d="M512 926.476c-269.312 0-487.619-180.102-487.619-402.286s218.307-402.286 487.619-402.286 487.619 180.102 487.619 402.286c0 222.184-218.307 402.286-487.619 402.286zM511.244 175.762c-232.862 0-421.595 155.721-421.595 347.819s188.733 347.819 421.595 347.843c232.862 0 421.62-155.746 421.62-347.843-0.049-192.098-188.757-347.819-421.62-347.819z" />
<glyph unicode="&#xe605;" d="M951.832 838.607l-58.466 47.055c-28.818 23.162-45.568 22.894-70.242-7.582l-424.936-524.41-197.754 164.303c-27.282 22.918-44.349 21.699-66.779-6.339l-45.129-58.758c-22.894-28.818-19.968-45.178 7.095-67.779l281.844-233.131c29.013-24.381 45.349-21.87 67.779 5.413l513.926 611.011c24.137 29.013 22.674 46.348-7.339 70.217z" />
<glyph unicode="&#xe606;" d="M292.571 292.815v-219.331c0-29.672 22.869-25.478 30.476-19.383 9.362 7.509 262.095 238.714 262.095 238.714h316.952c60.245 0 73.143 12.898 73.143 73.118v503.028c0 70.68-12.19 81.896-73.143 81.896h-780.19c-59.977 0-73.143-12.19-73.143-73.118v-511.805c0-59.221 10.24-73.118 73.143-73.118h170.667zM347.672 573.099c0-37.059-30.232-67.267-67.291-67.267s-67.291 30.208-67.291 67.267c0 37.035 30.232 67.267 67.291 67.267s67.291-30.257 67.291-67.267zM567.101 573.099c0-37.059-30.232-67.267-67.291-67.267s-67.291 30.208-67.291 67.267c0 37.035 30.232 67.267 67.291 67.267s67.291-30.257 67.291-67.267zM786.53 573.099c0-37.059-30.232-67.267-67.291-67.267s-67.291 30.208-67.291 67.267c0 37.035 30.232 67.267 67.291 67.267s67.291-30.257 67.291-67.267z" />
<glyph unicode="&#xe607;" d="M999.619 731.429c0 36.084-7.582 48.762-45.641 48.762h-655.896l-19.529 121.905c-2.658 35.596-20.724 48.762-59.026 48.762h-146.359c-36.108 0-48.786-11.947-48.786-48.762v-24.381c0-37.815 12.678-48.762 48.786-48.762h90.746l80.018-463.238c8.533-25.356 31.963-47.543 73.167-48.762h536.674c42.667 0 62.659 8.753 73.192 48.762l72.655 365.714zM828.392 438.857h-482.28l-35.864 219.429h559.567l-41.423-219.429zM341.504 146.286c0-53.882 43.642-97.524 97.573-97.524 53.906 0 97.597 43.642 97.597 97.524s-43.691 97.524-97.597 97.524c-53.931 0-97.573-43.642-97.573-97.524zM658.627 146.286c0-53.882 43.666-97.524 97.573-97.524s97.573 43.642 97.573 97.524-43.666 97.524-97.573 97.524-97.573-43.642-97.573-97.524z" />
<glyph unicode="&#xe608;" d="M512.049 375.759l252.514-258.536c25.332-26.136 41.813-26.405 67.608 0l50.664 51.883c24.82 25.405 26.502 42.082 0 69.218l-267.337 273.676 267.362 273.676c25.039 25.722 25.527 43.081 0 69.242l-50.664 51.858c-26.283 26.917-42.52 25.673-67.608 0l-252.538-258.536-252.514 258.511c-25.088 25.673-41.326 26.917-67.608 0l-50.664-51.858c-25.551-26.161-25.088-43.52 0-69.242l267.337-273.652-267.337-273.676c-26.502-27.136-25.088-43.813 0-69.218l50.639-51.883c25.576-26.405 42.057-26.136 67.608 0l252.538 258.536z" />
<glyph unicode="&#xe609;" d="M363.52 485.669c0-81.896 66.56-148.48 148.48-148.48 81.896 0 148.48 66.56 148.48 148.48s-66.56 148.48-148.48 148.48c-81.92 0-148.48-66.584-148.48-148.48zM97.524 146.286h828.952c64.122 0 73.143 9.021 73.143 73.143v560.762c0 60.026-9.265 73.143-73.143 73.143h-243.81c0 62.659-10.24 73.143-73.143 73.143h-195.048c-62.171 0-73.143-11.703-73.143-73.143h-243.81c-62.903 0-73.143-16.872-73.143-73.143v-560.762c0-63.39 9.265-73.143 73.143-73.143zM283.794 485.669c0 126.050 102.156 228.181 228.206 228.181s228.181-102.132 228.181-228.181-102.132-228.181-228.181-228.181-228.206 102.132-228.206 228.181z" />
<glyph unicode="&#xe60a;" d="M379.416 517.705c-32.378 46.86-51.639 103.4-55.613 108.203 47.421 33.061 140.166 74.606 145.359 134.217 6.607 77.019-123.88 238.031-148.894 239.494-68.462-0.731-193.755-116.59-208.603-151.601-27.599-72.387-13.922-139.752 33.524-237.275 60.416-145.067 284.818-420.254 413.184-506.636 84.943-65.195 146.993-90.795 221.086-75.337 34.45 6.534 158.866 108.617 171.325 177.64 3.048 25.6-141.58 195.316-216.381 202.045-58.075 5.364-113.762-81.579-153.673-124.075-3.974 5.071-38.010 31.622-74.533 73.655-47.543 49.957-91.721 108.642-126.781 159.671z" />
<glyph unicode="&#xe60b;" d="M914.261 889.905h-48.738v-134.583c0-29.989-5.705-36.084-36.181-36.084h-146.7c-30.476 0-36.547 6.607-36.547 36.571v134.095h-268.19v-134.583c0-29.989-6.095-36.084-36.571-36.084h-146.286c-30.476 0-36.571 6.607-36.571 36.571v134.095h-48.762c-62.903 0-73.143-13.678-73.143-73.143v-706.999c-0.244-59.246 14.629-73.192 73.143-73.192h804.547c62.171 0 73.167 12.946 73.167 73.192v706.999c0 57.295-9.289 73.143-73.167 73.143zM865.524 158.476h-707.048v487.619h707.048v-487.619zM243.81 768h48.762c30.476 0 36.571 6.095 36.571 36.084v121.905c0 30.476-6.583 36.571-36.571 36.571l-48.762 0.488c-28.989 0-36.571-6.827-36.571-36.571v-121.905c0-29.964 6.095-36.571 36.571-36.571zM731.404 768h48.762c30.476 0 36.596 6.095 36.596 36.084v121.905c0 30.476-6.583 36.571-36.571 36.571l-48.762 0.488c-28.989 0-36.571-6.827-36.571-36.571v-121.905c0-29.964 6.071-36.571 36.547-36.571zM256 548.571h121.905v-121.905h-121.905v121.905zM451.048 548.571h121.905v-121.905h-121.905v121.905zM646.095 548.571h121.905v-121.905h-121.905v121.905zM256 353.524h121.905v-121.905h-121.905v121.905zM451.048 353.524h121.905v-121.905h-121.905v121.905zM646.095 353.524h121.905v-121.905h-121.905v121.905z" />
<glyph unicode="&#xe60c;" d="M560.762 877.714c0 56.32-10.703 73.143-73.143 73.143h-390.095c-62.415 0-73.143-16.823-73.143-73.143v-707.048c0-60.952 15.116-73.143 73.143-73.143h243.81v48.762l219.429 195.048v536.381zM146.286 828.952h292.571v-585.143h-292.571v585.143zM316.952 146.286h-73.143v48.762h73.143v-48.762zM647.582 350.866l-195.316-177.762c-25.356-27.014-65.829-49.006-28.282-95.037 31.208-38.278 72.387-2.926 95.817 21.894l194.804 180.663-67.023 70.242zM941.324 425.179l-55.345-47.762-46.568 48.030 21.236 52.419-52.175 65.39c0 0-101.425 80.701-228.206 1.219 57.076 2.658 111.665-28.794 151.162-98.036l-53.37-51.712 67.048-64.098 43.861 39.473 53.662-47.055-42.935-40.96 52.175-52.663 140.459 136.046-51.005 59.709z" />
<glyph unicode="&#xe60d;" d="M525.385 676.791c87.284-10.484 200.387-110.202 209.676-201.874 0 0 230.376 230.912 230.132 231.619 47.275 47.299 45.592 67.048-3.657 111.202l-99.474 89.722c-47.494 42.91-65.78 41.204-110.397-3.17l-226.28-227.499zM646.071 473.917c-7.314 32.939-71.412 110.007-140.41 121.417-173.105 44.617-338.651-143.36-328.899-280.162 15.628-111.689-130.438-127.269-152.381-132.389 144.335-50.274 205.751-61.952 339.358-33.646 116.541 24.6 342.065 139.215 282.331 324.779z" />
<glyph unicode="&#xe60e;" d="M324.047 975.238c-66.072 0-80.213-15.36-80.213-81.676v-770.17c0-53.199-1.707-73.655 26.331-74.654 18.993 0 37.059 16.603 51.688 31.451 0 0 177.225 208.457 188.928 212.821 6.802 2.682-0.268 3.194-0.512 1.95-0.244-0.244 0.512-0.951 2.926-1.95 11.703-4.389 188.952-212.821 188.952-212.821 14.629-14.848 32.67-31.451 51.663-31.451 28.038 0.975 26.331 21.455 26.331 74.654v770.17c0 66.316-14.141 81.676-80.189 81.676h-375.906z" />
<glyph unicode="&#xe60f;" d="M24.381 999.619v-975.238h975.238v975.238h-975.238zM170.667 585.143h253.367c25.381 0 52.078-4.169 72.509-22.967 18.798-18.627 29.867-42.35 30.427-70.9-0.122-21.87-4.901-45.714-19.432-65.829-10.216-13.702-19.919-22.601-44.3-28.501v-2.341c24.381-4.608 37.327-14.555 50.322-30.891 15.482-19.919 21.065-46.909 21.48-73.435-0.146-28.136-9.728-62.537-31.549-84.87-19.383-18.993-47.006-34.767-76.312-34.767h-256.512v414.501zM609.524 585.143h195.048v-48.762h-195.048v48.762zM699.026 506.856c25.746 0 48.591-3.34 68.51-10.045 20.139-6.534 37.083-16.725 50.81-30.525 13.702-13.629 24.137-31.915 31.159-53.029 9.314-27.697 11.069-71.924 10.874-96.305h-214.528c0-24.381 4.413-38.4 13.239-50.639 8.948-12.020 23.723-17.603 44.154-17.603 19.48 0.098 42.203 5.022 49.713 26.843 1.95 5.705 2.901 17.018 2.901 17.018h104.521c-0.195-24.381-10.898-64.658-38.912-89.137-30.988-25.137-74.24-31.573-115.858-32.378-25.771 0-49.006 3.608-69.803 10.142-20.626 6.705-38.132 17.189-52.614 31.037-14.482 13.8-25.576 31.281-33.329 52.248-7.753 21.090-11.678 46.178-11.678 74.947 0 28.038 3.755 52.541 11.386 73.533 7.582 20.919 18.334 38.327 32.232 52.175 14.092 13.97 31.013 24.527 50.761 31.427 19.968 6.851 42.13 10.289 66.462 10.289zM292.571 512v-73.143h85.187c7.436 0 18.944 1.048 24.308 7.046 5.193 6.339 12.41 12.239 12.41 20.943v5.949c0 7.875-7.582 19.48-12.702 26.234-4.681 5.534-16.14 12.946-24.015 12.946h-85.187zM703.244 429.861c-18.139 0-31.72-9.947-40.716-19.627-8.802-9.655-14.19-20.139-16.091-44.52h105.204c0 24.381-4.218 35.060-12.702 44.52-8.436 9.679-20.309 19.627-35.694 19.627zM292.571 341.333v-73.143h93.915c7.339 0 14.434 7.534 19.895 13.288 5.193 6.29 8.094 18.773 8.094 27.477v6.242c0 7.948-2.706 13.019-8.094 19.87-4.706 5.583-12.069 6.266-19.895 6.266h-93.915z" />
<glyph unicode="&#xe610;" d="M659.895 999.619l-489.228-489.277 477.086-477.111 120.296 120.271-356.864 356.84 369.006 369.006z" />
<glyph unicode="&#xe611;" d="M755.81 89.722l-429.324 422.278 429.324 422.278-66.341 65.341-494.421-487.863 494.421-487.375z" />
<glyph unicode="&#xe612;" d="M121.905 317.464h195.048l219.429-268.556c24.381-35.109 81.432-32.451 97.524 7.363v910.921c-19.773 39.79-71.656 42.984-97.524 9.314l-219.429-269.483h-195.048c-62.44 0-73.143-11.24-73.143-72.265v-244.102c0-59.538 12.19-73.192 73.143-73.192z" />
<glyph unicode="&#xe613;" d="M682.667 815.665c119.71-48.323 204.069-165.766 204.069-302.933 0-137.192-84.358-254.562-204.069-302.909v-68.145c155.819 51.005 268.19 197.949 268.19 371.054 0 173.080-112.372 320-268.19 371.273v-68.34zM682.667 654.775c40.009-34.182 65.341-85.187 65.341-142.068 0-56.905-25.332-107.861-65.341-142.043v-69.339c72.899 42.203 121.905 121.076 121.905 211.383 0 90.283-49.006 169.131-121.905 211.383v-69.315zM121.905 317.464h195.048l219.429-268.556c24.381-35.109 81.432-32.451 97.524 7.363v910.921c-19.773 39.79-71.656 42.984-97.524 9.314l-219.429-269.483h-195.048c-62.44 0-73.143-11.24-73.143-72.265v-244.102c0-59.538 12.19-73.192 73.143-73.192z" />
<glyph unicode="&#xe614;" d="M315.441 451.048c-9.704-18.042-3.901-32.914 16.091-52.907l18.53-18.53c20.236-20.236 35.401-25.868 52.931-16.091 6.363 3.413 13.19 8.753 20.504 16.091l110.226 110.202c20.626 17.896 41.886 10.484 61.879-9.509 20.48-20.236 32.914-44.349 14.385-66.316l-165.254-165.327c-58.758-58.758-147.797-72.655-220.404 0-65.39 65.365-58.758 161.67 0 220.428l330.533 330.654c58.758 58.782 145.798 74.606 220.428 0 74.362-74.386 63.415-157.038 18.286-202.167-28.526-28.526-25.381-61.928-7.582-81.432l18.286-18.261c27.819-27.55 53.175-19.017 80.482 8.753 93.623 112.177 87.796 279.43-17.554 385.024-111.689 111.445-292.596 111.445-404.236 0l-330.63-330.654c-111.421-111.665-111.421-292.596 0-404.261 111.665-111.445 292.596-111.445 404.261 0l165.303 165.327c49.957 75.825 42.91 174.324-23.674 240.884-66.341 66.341-160.914 67.803-236.471 18.798l-110.226-110.226c-7.29-7.314-12.678-14.141-16.091-20.48z" />
<glyph unicode="&#xe615;" d="M390.095 48.762h243.81c61.659 0 73.143 12.898 73.143 73.143v365.714h292.571l-487.619 487.619-487.619-487.619h292.571v-365.714c0-59.465 12.19-73.143 73.143-73.143z" />
<glyph unicode="&#xe616;" d="M60.952 377.905v243.81c0 61.659 12.898 73.143 73.143 73.143h365.714v292.571l487.619-487.619-487.619-487.619v292.571h-365.714c-59.465 0-73.143 12.19-73.143 73.143z" />
<glyph unicode="&#xe617;" d="M975.238 390.095v243.81c0 61.659-12.386 73.143-72.631 73.143h-366.226v292.571l-487.619-487.619 487.619-487.619v292.571h366.226c59.49 0 72.631 12.19 72.631 73.143z" />
<glyph unicode="&#xe618;" d="M633.905 975.238h-243.81c-61.684 0-73.143-12.898-73.143-73.143v-365.714h-292.571l487.619-487.619 487.619 487.619h-292.571v365.714c0 59.465-12.19 73.143-73.143 73.143z" />
<glyph unicode="&#xe619;" d="M458.24 941.227l-416.719-747.52c-34.67-63.171-19.944-120.564 73.752-120.564h793.405c93.964 0 108.422 57.393 73.752 120.564l-425.326 747.057c-8.631 16.847-21.163 34.718-47.714 34.475-28.282-0.512-42.301-17.14-51.151-34.011zM463.238 707.048h97.524v-341.333h-97.524v341.333zM463.238 292.571h97.524v-97.524h-97.524v97.524z" />
<glyph unicode="&#xe61a;" d="M511.42 24.391c-272.286 5.242-485.132 228.474-487.058 488.18 5.291 272.091 227.328 485.132 487.058 487.058 272.14-5.437 486.278-227.011 488.18-487.058-5.364-272.335-228.084-486.278-488.18-488.18zM511.42 965.081c-252.83-4.974-451.852-211.066-453.608-452.51 4.925-253.050 212.187-451.877 453.608-453.632 253.050 4.925 451.877 212.212 453.632 453.632-4.754 253.001-212.529 450.731-453.632 452.51zM394.44 113.552l124.806 358.888 130.414-351.086c-87.845-29.403-170.91-31.208-255.22-7.802zM298.574 747.725c-45.714-6.193-90.136-8.436-133.754-6.656 82.798 118.37 215.381 184.954 346.624 186.124 107.374-2.024 207.482-42.594 280.893-109.202-34.036 2.536-54.418-12.434-69.096-37.912-21.333-65.755 23.747-114.469 49.030-163.84 23.942-45.129 22.040-96.402 8.923-140.459l-62.415-212.846-150.479 446.927c15.677 1.463 31.451 1.926 45.69 4.462 16.847 3.755 20.553 19.432 8.923 28.989-3.706 2.95-7.802-0.39-12.264-0.39l-90.283-11.483h-68.559c-19.334 0-73.996 22.357-78.58-2.999-2.389-9.752 4.925-15.019 13.385-16.555 14.897-1.926 31.988-2.926 45.69-4.364l65.755-175.494-91.404-269.434-151.576 447.098c16.043 1.414 32.28 1.95 46.811 4.535 11.898 1.512 17.091 7.461 15.628 17.847-2.121 9.265-10.362 15.555-18.944 15.653zM131.369 678.629l199.509-539.429c-71.973 35.474-128.878 87.674-169.399 149.894-74.118 118.272-81.92 268.337-30.11 389.534v0zM910.999 401.662c-32.744-106.959-99.645-195.56-192.244-249.1 4.462 11.849 11.508 31.939 21.163 60.172l115.931 336.603c11.142 32.719 18.92 69.096 23.381 109.227 1.512 16.408 1.56 32.963-1.097 47.909 47.494-102.424 60.952-203.874 32.866-304.811v0z" />
<glyph unicode="&#xe61b;" d="M609.524 267.191c-53.882 53.419-141.166 53.419-195.048 0l97.524-96.524 97.524 96.524zM804.571 460.312c-161.646 159.988-423.497 159.988-585.143 0l97.524-96.524c107.764 106.545 282.331 106.545 390.095 0l97.524 96.524zM999.619 653.434c-269.41 266.533-705.829 266.533-975.238 0l97.524-96.524c215.528 213.358 564.663 213.358 780.19 0l97.524 96.524z" />
<glyph unicode="&#xe61c;" d="M897.066 488.043c2.354 9.473-0.071 19.188-8.931 22.284l-36.764 16.72c-9.102 3.781-20.672-1.327-22.284-10.043-7.090-15.194-17.162-27.619-33.426-27.862-14.138 0-25.665 7.618-34.567 22.855s-13.382 35.095-13.382 59.619 4.48 44.596 13.382 60.189c8.902 15.622 20.429 23.411 34.567 23.411 17.804-1.284 26.236-12.554 33.426-26.735 3.809-9.33 14.138-11.527 22.284-8.931l36.764 16.72c8.517 4.494 12.34 15.565 7.804 23.382-21.528 46.066-54.996 69.092-100.292 69.092-37.905 0-68.592-14.48-91.946-43.455-23.425-28.975-35.138-66.88-35.138-113.688s11.684-84.528 35.138-113.117c23.382-28.59 54.041-42.884 91.946-42.884 45.324 0 79.135 24.11 101.419 72.444zM542.649 415.599c59.077 0.885 104.072 41.501 104.786 94.742-1.041 28.090-12.355 49.946-32.327 66.852 17.576 16.62 27.691 39.232 27.862 61.302-1.427 60.218-51.53 88.693-100.292 89.164-42.371 0-75.041-16.72-98.066-50.16-5.207-7.447-4.494-14.88 2.24-22.312l26.721-24.481c8.588-7.661 18.118-6.234 25.636 1.099 11.142 15.622 24.524 23.411 40.131 23.411 12.626 0 20.044-3.167 22.255-9.459 4.308-9.387 3.067-17.947 0-25.665-11.499-11.898-33.554-8.332-49.818-8.332-10.571-0.385-24.139-6.577-24.139-16.72v-40.16c0-11.499 13.995-19.103 24.139-16.72 12.269 0 46.066 1.398 51.102-8.902 2.596-5.949 5.207-10.785 5.207-14.495 0-17.091-8.617-25.622-27.22-25.622-17.804 0-32.384 8.189-44.268 24.524-7.29 8.802-18.589 8.902-25.451 2.24l-27.791-27.862c-6.691-6.734-7.404-13.781-2.197-21.185 25.266-35.523 62.073-50.959 101.49-51.259zM432.313 706.688c2.026 10.685-5.835 24.738-15.593 24.738h-49.047c-8.902 0-14.124-8.018-15.622-16.934l-23.382-121.021-24.524 121.905c-2.254 8.902-7.804 16.050-16.72 16.050h-35.666c-9.673 0-15.236-8.018-16.72-16.934l-24.524-121.021-23.425 121.905c-1.469 8.902-7.048 16.050-16.72 16.050h-47.906c-12.24 0-18.090-14.166-16.72-24.738l61.316-274.255c2.24-8.959 7.804-17.947 16.72-17.947h46.808c8.888 0 14.48 7.233 16.72 16.192l22.284 112.803 22.284-113.517c1.498-8.931 7.076-15.479 16.72-15.479h46.808c8.945 0 14.495 9.002 16.72 17.947l60.189 274.255zM999.626 999.618v-746.668l-487.621-228.574-487.621 228.574v746.668h975.242z" />
<glyph unicode="&#xe61d;" d="M987.429 987.429v-950.857h-950.857v950.857h950.857zM791.406 733.964c-98.255 81.189-228.693-29.769-259.17-118.491 18.773-0.512 40.472 1.463 56.564-4.632 25.088-13.41 25.6-39.741 23.65-61.659-11.215-49.006-45.836-138.216-90.453-145.31-9.265-0.951-19.017 4.145-29.013 15.653-39.010 48.762-34.109 112.884-43.398 166.766-8.29 45.105-14.848 136.046-68.242 155.819-58.758 7.29-110.47-36.571-148.236-71.461-23.186-21.211-46.811-41.691-70.949-61.196v-3.901c5.851-7.070 10.484-14.141 15.604-20.748 8.777-8.753 24.893-6.583 34.621-3.389 35.84 9.24 48.25 18.286 67.56-15.628 28.77-78.263 50.712-166.059 69.705-240.884 13.434-42.423 30.964-97.012 73.874-114.566 26.575-11.24 72.168 3.901 92.648 16.091 86.552 54.857 153.893 142.629 201.874 227.206 35.109 71.412 122.612 213.285 73.362 280.332z" />
<glyph unicode="&#xe61e;" d="M373.029 533.943c0-75.581 63.39-138.971 138.971-138.971s138.971 63.39 138.971 138.971-63.39 138.971-138.971 138.971-138.971-63.39-138.971-138.971zM570.514 234.057c163.352 36.571 416.914 253.562 416.914 253.562s-187.733 292.571-438.857 324.267c-14.629 2.438-63.39 2.438-73.143 2.438-243.81-24.381-438.857-334.019-438.857-334.019s212.114-209.676 414.476-241.371c21.943-9.752 95.086-9.752 119.467-4.876zM270.629 519.314c0 126.781 107.276 229.181 241.371 229.181s241.371-102.4 241.371-229.181-107.276-226.743-241.371-226.743-241.371 102.4-241.371 226.743z" />
<glyph unicode="&#xe61f;" d="M97.524 195.048h585.143c61.659 0 73.143 11.483 73.143 73.143v219.429l183.345-248.198c28.038-27.307 46.568-28.038 60.465 6.095v531.992c-13.897 34.133-32.427 35.109-60.465 7.802l-183.345-273.31v219.429c0 60.952-11.703 73.143-73.143 73.143h-585.143c-60.465 0-73.143-13.41-73.143-84.114v-452.267c0-60.952 11.703-73.143 73.143-73.143z" />
<glyph unicode="&#xe620;" d="M499.176 24.478c8.46 0 17.189-0.244 25.624 0 165.132 2.438 322.341 20.992 350.818 48.104 6.583 60.050 14.58 89.112-251.733 215.089-37.888 21.236-17.822 103.522-17.822 103.522 80.189 60.514 135.241 200.68 135.241 313.003 0 194.097-87.528 285.891-216.43 295.424h-25.649c-128.683-9.533-216.186-101.327-216.186-295.424 0-112.323 54.808-252.44 135.046-313.003 0 0 19.992-82.286-17.676-103.522-266.581-125.976-258.584-155.063-251.977-215.089 28.453-27.087 185.612-45.666 350.744-48.104z" />
<glyph unicode="&#xe621;" d="M97.524 511.976v-414.476c0-60.709 13.678-73.118 73.143-73.118h682.667c63.61 0 73.143 11.483 73.143 73.118v414.476c0 59.953-11.215 73.167-73.143 73.167h-682.667c-58.758 0-73.143-16.36-73.143-73.167zM589.531 341.309c0-34.377-22.187-63.366-52.907-73.606l48.518-121.417h-146.286l48.518 121.417c-30.72 10.24-52.907 39.18-52.907 73.606 0 42.91 34.621 77.556 77.531 77.556s77.531-34.645 77.531-77.556zM170.667 633.88l131.901 0.707c6.339 116.541 59.465 234.813 210.651 234.813 111.177 0 167.034-66.804 200.899-146.042l116.322 81.896c-47.275 112.908-156.794 192.853-312.344 194.341-226.011 2.194-347.429-161.914-347.429-365.714z" />
<glyph unicode="&#xe622;" d="M999.612 832.339c-6.527-13.624-18.662-30.853-36.433-51.644-17.757-20.833-39.662-39.119-65.755-54.928 0.71-5.72 1.266-11.119 1.614-16.115 2.811-77.361-15.906-157.589-41.861-224.43-50.336-124.287-127.433-224.332-237.567-292.244-114.838-65.24-248.575-79.101-371.805-67.258-81.815 9.282-162.446 35.737-223.428 85.572 111.526-13.193 215.621 24.354 297.908 85.029-91.431-2.282-157.812 63.194-189.194 138.886 14.139-3.688 28.932-3.256 42.403-2.185 16.602 1.573 32.356 3.089 47.831 6.471-58.282 18.62-109.286 52.841-135.908 104.401-15.614 32.69-22.67 63.779-22.809 99.029 27.29-14.236 60.147-28.125 90.234-26.9-45.423 38.089-81.856 86.769-88.62 142.615-4.286 46.55 7.501 89.065 24.479 128.615 67.926-73.91 144.16-134.78 232.098-172.215 60.147-24.382 120.112-37.449 182.124-37.672-7.167 54.831-1.6 107.838 24.451 152.83 30.672 48.387 75.427 76.429 125.568 90.429 71.809 18.244 141.836-7.543 185.923-57.043 47.552 5.066 93.115 25.982 129.381 47.33-15.405-46.189-45.409-92.113-89.162-114.101 41.68 7.64 81.411 19.859 118.526 35.529z" />
<glyph unicode="&#xe623;" d="M532.236 307.688c-5.12 4.632-8.046 18.018-8.046 21.455v268.19h170.667v97.524h-170.667v146.286h-97.524c-6.827-81.189-20.236-146.286-121.905-146.286v-97.524h73.143c0-101.669-1.219-208.457-1.219-298.423 0-42.423 24.381-78.994 58.734-98.475 32.183-16.603 40.984-25.624 74.386-27.575 36.815-1.707 77.288 0.244 108.739 3.901 27.794 4.389 57.783 15.848 78.019 27.55v116.541c0-9.021-24.893-14.872-41.448-20.968-27.794-9.265-93.867-21.211-122.88 7.802zM987.429 987.429v-950.857h-950.857v950.857h950.857z" />
<glyph unicode="&#xe624;" d="M329.143 791.65v97.524c0 60.952-12.922 73.143-73.143 73.143l-97.524 0.731c-58.027 0-73.143-13.678-73.143-73.143v-97.524c0-60.245 12.19-73.143 73.143-73.143h97.524c60.952 0 73.143 12.19 73.143 72.411zM329.143 474.722v97.524c0 60.952-12.922 73.143-73.143 73.143l-97.524 0.731c-58.027 0-73.143-13.678-73.143-73.143v-97.524c0-60.245 12.19-73.143 73.143-73.143h97.524c60.952-0.024 73.143 12.166 73.143 72.411zM329.143 157.769v97.524c0 60.952-12.922 73.143-73.143 73.143l-97.524 0.707c-58.027 0-73.143-13.678-73.143-73.143v-97.524c0-60.245 12.19-73.143 73.143-73.143h97.524c60.952 0 73.143 12.19 73.143 72.436zM646.095 791.65v97.524c0 60.952-12.898 73.143-73.143 73.143l-97.524 0.731c-58.027 0-73.143-13.678-73.143-73.143v-97.524c0-60.245 12.19-73.143 73.143-73.143h97.524c60.952 0 73.143 12.19 73.143 72.411zM646.095 474.722v97.524c0 60.952-12.898 73.143-73.143 73.143l-97.524 0.731c-58.027 0-73.143-13.678-73.143-73.143v-97.524c0-60.245 12.19-73.143 73.143-73.143h97.524c60.952-0.024 73.143 12.166 73.143 72.411zM646.095 157.769v97.524c0 60.952-12.898 73.143-73.143 73.143l-97.524 0.707c-58.027 0-73.143-13.678-73.143-73.143v-97.524c0-60.245 12.19-73.143 73.143-73.143h97.524c60.952 0 73.143 12.19 73.143 72.436zM963.048 791.65v97.524c0 60.952-12.898 73.143-73.143 73.143l-97.524 0.731c-58.027 0-73.143-13.678-73.143-73.143v-97.524c0-60.245 12.19-73.143 73.143-73.143h97.524c60.952 0 73.143 12.19 73.143 72.411zM963.048 474.722v97.524c0 60.952-12.898 73.143-73.143 73.143l-97.524 0.731c-58.027 0-73.143-13.678-73.143-73.143v-97.524c0-60.245 12.19-73.143 73.143-73.143h97.524c60.952-0.024 73.143 12.166 73.143 72.411zM963.048 157.769v97.524c0 60.952-12.898 73.143-73.143 73.143l-97.524 0.707c-58.027 0-73.143-13.678-73.143-73.143v-97.524c0-60.245 12.19-73.143 73.143-73.143h97.524c60.952 0 73.143 12.19 73.143 72.436z" />
<glyph unicode="&#xe625;" d="M60.952 914.286h902.095v-219.429h-69.486l-52.419 170.667h-243.81v-658.286l146.286-43.886v-53.638h-463.238v53.638l146.286 43.886v658.286h-242.59l-53.638-170.667h-69.486z" />
<glyph unicode="&#xe626;" d="M865.524 914.286c0 58.027-12.19 73.143-73.143 73.143h-609.524c-60.952 0-73.143-13.678-73.143-73.143v-828.952c0-58.758 13.678-73.143 73.143-73.143h609.524c60.245 0 73.143 13.678 73.143 73.143v828.952zM231.619 865.524h512v-658.286h-512v658.286zM572.952 85.333h-170.667v48.762h170.667v-48.762z" />
<glyph unicode="&#xe627;" d="M755.81 585.143v-146.286l243.81 242.078-243.81 245.541v-121.905c-373.029-2.438-365.714-365.714-365.714-365.714s132.876 182.613 365.714 146.286zM560.762 902.095h-463.238c-59.977 0-73.143-17.067-73.143-73.143v-585.143c0-60.709 14.629-73.143 73.143-73.143h707.048c58.758 0 73.143 10.996 73.143 73.143v195.048l-121.905-104.57v-41.716h-609.524v487.619h292.571l121.905 121.905z" />
<glyph unicode="&#xe628;" d="M161.402 426.667c9.752-39.497 25.844-76.312 47.055-109.47l-59.246-59.49c-26.575-26.575-26.331-42.423-2.926-65.829l57.783-57.783c23.65-23.674 39.741-23.162 65.829 2.926l62.171 62.415c29.257-16.774 60.952-29.745 94.598-38.034v-76.069c0-37.79 11.459-48.762 44.373-48.762h81.92c33.402 0 44.373 11.703 44.373 48.762v76.069c33.646 8.29 65.341 21.211 94.598 38.034l63.634-63.854c26.331-26.039 42.155-26.575 65.804-3.194l58.051 58.051c23.138 23.138 23.65 39.058-3.194 65.804l-60.952 60.952c21.48 33.158 37.571 69.973 47.25 109.47h80.506c33.353 0 44.325 11.703 44.325 48.762v73.143c0 36.084-9.582 48.762-44.325 48.762h-80.506c-8.29 33.646-21.211 65.341-38.083 94.598l58.075 57.783c25.6 25.6 27.794 41.448 3.17 65.829l-58.027 58.027c-23.162 23.162-39.79 22.918-65.829-3.17l-55.101-54.857c-33.085 21.211-69.9 37.303-109.397 47.055v76.069c0 36.084-9.533 48.762-44.373 48.762h-81.92c-32.914 0-44.373-11.947-44.373-48.762v-76.069c-39.497-9.752-76.312-25.844-109.47-47.055l-55.101 54.857c-26.088 26.088-42.667 26.331-65.829 3.17l-58.027-58.027c-24.625-24.381-22.43-40.229 3.17-65.829l57.783-57.783c-16.579-29.257-29.501-60.952-37.79-94.598h-80.457c-32.914 0-44.373-11.947-44.373-48.762v-73.143c0-37.79 11.459-48.762 44.373-48.762h80.457zM372.541 512c0 77.044 62.415 139.459 139.459 139.459s139.483-62.415 139.483-139.459-62.44-139.483-139.483-139.483-139.459 62.44-139.459 139.483z" />
<glyph unicode="&#xe629;" d="M24.381 589.093c0-213.26 173.861-385.877 388.632-385.877 214.455 0 388.584 172.617 388.584 385.877s-174.129 386.146-388.584 386.146c-214.772 0-388.632-172.885-388.632-386.146zM147.529 589.093c0 145.774 118.686 263.729 265.509 263.729 146.53 0 265.46-117.979 265.46-263.729 0-145.774-118.93-263.753-265.46-263.753-146.822 0-265.509 118.004-265.509 263.753zM686.616 235.008l167.131-190.391c26.917-26.868 44.276-27.087 71.631 0l53.662 53.175c26.38 26.356 28.014 43.349 0 71.217l-192.512 165.181-99.913-99.182z" />
<glyph unicode="&#xe62a;" d="M598.089 987.429h-171.422c-61.684 0-73.143-13.8-73.143-73.533v-267.8h-231.619l403.042-413.72 401.53 413.72h-256v268.19c0 59.806-11.045 73.143-72.387 73.143zM268.19 134.095l-64.122 146.286h-130.926l96.061-234.545c8.533-25.6 26.6-33.646 76.142-33.646h559.226c48.006 0 58.027 7.314 66.536 32.914l96.061 234.569h-125.074l-61.903-145.579h-512z" />
<glyph unicode="&#xe62b;" d="M999.624 24.391c0 538.624-436.614 975.238-975.238 975.238v-195.048c430.885 0 780.19-349.282 780.19-780.19h195.048zM609.504 24.391c0 323.194-261.949 585.118-585.118 585.118v-194.974c215.43 0 390.12-174.714 390.12-390.144h194.999zM219.433 24.391c0 107.715-87.333 195.048-195.048 195.048v-195.048h195.048z" />
<glyph unicode="&#xe62c;" d="M280.381 914.286c-169.179 0-268.19-108.983-268.19-268.19v-268.19c0-169.96 94.086-268.19 268.19-268.19h438.857c180.419 0 268.19 98.231 268.19 268.19v268.19c0 169.935-99.011 268.19-268.19 268.19h-438.857z" />
<glyph unicode="&#xe62d;" d="M292.571 926.476c-169.179 0-268.19-108.983-268.19-268.19v-268.19c0-169.96 94.086-268.19 268.19-268.19h438.857c180.419 0 268.19 98.231 268.19 268.19v268.19c0 169.935-99.011 268.19-268.19 268.19h-438.857zM267.947 853.333h487.863c111.909 0 170.667-61.44 170.667-170.667v-316.952c0-112.64-59.733-170.667-170.667-170.667h-487.619c-110.69 0-170.667 60.709-170.667 170.667v320.122c0 106.789 61.659 167.497 170.423 167.497z" />
<glyph unicode="&#xe62e;" d="M609.524 292.571l194.072-179.712 196.023 179.712h-121.905v510.805c0 60.952-13.678 74.338-73.143 74.338h-438.857l161.914-146.286h203.8v-438.857h-121.905zM414.476 731.429l-194.56 178.956-195.535-178.956h121.905v-513.195c0-60.952 15.116-71.948 73.143-71.948h446.659l-154.088 146.286h-219.429v438.857h121.905z" />
<glyph unicode="&#xe62f;" d="M663.918 609.524h311.32v306.956l-105.691-106.91c-8.29 9.728-15.872 19.261-24.893 28.526-182.37 182.857-477.184 182.857-659.31 0-182.345-182.857-182.004-479.354 0.366-662.211 182.15-182.857 477.794-182.857 660.187 0 0 0 61.074 71.656 81.286 109.958l-100.669 44.861c-14.848-26.039-58.27-76.751-58.27-76.751-139.435-139.947-365.202-139.947-504.418 0-139.459 139.678-139.435 366.47 0 506.173 139.215 139.947 365.007 139.947 504.418 0 9.289-9.265 17.774-13.995 25.868-23.991l-130.194-126.61z" />
<glyph unicode="&#xe630;" d="M24.381 926.476h975.238v-804.571h-975.238v804.571z" />
<glyph unicode="&#xe631;" d="M24.381 926.476v-804.571h975.238v804.571h-975.238zM97.524 853.333h828.952v-658.286h-828.952v658.286z" />
<glyph unicode="&#xe632;" d="M432.445 279.869c0-19.87 6.315-36.108 18.895-49.006 12.873-12.605 28.891-19.139 48.055-19.139 19.432 0 35.645 6.583 48.518 19.139 13.068 12.849 19.675 29.086 19.675 49.006 0 19.7-6.607 36.133-19.675 48.762-12.849 12.849-29.086 19.188-48.518 19.188-19.163 0-35.157-6.339-48.055-19.188-12.581-12.629-18.895-29.111-18.895-48.762zM455.485 414.988h91.453c-2.462 18.676-1.219 27.916 4.389 42.935 5.803 15.019 13.336 29.355 22.821 42.667 9.216 13.385 19.846 26.21 31.817 38.595 11.63 12.142 22.796 24.99 32.987 38.302 10.191 13.361 18.871 27.429 25.746 42.203 6.997 15.067 10.435 31.549 10.435 50.225 0 24.015-4.145 44.861-12.142 62.83-8.241 18.188-19.87 33.231-34.938 45.349-15.067 12.386-33.012 21.577-53.346 27.648-20.626 6.071-42.959 9.24-67.194 9.24-33.231 0-63.049-7.29-89.502-21.602-26.697-14.068-49.737-32.256-68.901-54.589l57.978-51.395c13.093 14.068 27.429 24.966 42.423 33.207 15.311 8.021 32.037 12.142 50.712 12.142 23.064 0 41.033-6.315 54.101-19.139 12.849-12.873 19.432-29.623 19.432-50.712 0-13.361-3.438-25.722-9.947-37.352-6.802-11.678-15.067-23.528-24.99-35.426-9.947-11.849-20.626-24.259-31.768-36.62-11.191-12.629-21.114-25.917-29.867-40.497-8.704-14.58-15.287-30.598-19.87-48.055-4.73-17.457-4.949-29.135-1.829-49.957zM36.571 512c0-262.485 212.968-475.429 475.429-475.429 262.485 0 475.429 212.943 475.429 475.429s-212.943 475.429-475.429 475.429c-262.461 0-475.429-212.943-475.429-475.429zM124.148 512c0 214.187 173.666 387.877 387.852 387.877s387.877-173.69 387.877-387.877-173.69-387.877-387.877-387.877-387.852 173.69-387.852 387.877z" />
<glyph unicode="&#xe633;" d="M316.952 292.474v-73.045h365.714v73.045h-365.714zM316.952 414.379v-73.045h365.714v73.045h-365.714zM97.524 341.333h73.143v-195.096c-0.244-59.246 13.361-73.094 73.143-73.094h512c59.782 0 73.143 11.020 73.143 73.094v195.096h73.143c62.171-0.975 73.85 12.849 73.143 73.094v268.19c0 57.295-9.265 73.192-73.143 73.192h-73.143v121.856c0.707 60.221-10.971 73.192-73.143 73.192h-512c-58.514 0-73.387-13.946-73.143-73.192v-121.856h-73.143c-62.903 0-73.143-13.702-73.143-73.192v-268.19c-0.244-59.246 14.629-74.069 73.143-73.094zM755.81 146.286h-512v316.952h512v-316.952zM801.646 597.285c0 21.943 17.554 39.473 39.497 39.473s39.497-17.53 39.497-39.473-17.554-39.497-39.497-39.497-39.497 17.554-39.497 39.497zM243.81 877.714h512v-122.002h-512v122.002z" />
<glyph unicode="&#xe634;" d="M560.762 877.714c0 58.027-12.19 73.143-73.143 73.143h-390.095c-60.952 0-73.143-16.823-73.143-73.143v-707.048c0-60.952 15.116-73.143 73.143-73.143h461.751l-205.751 146.286h-207.238v585.143h292.571v-487.619l121.905 111.202v425.179zM341.333 146.286h-73.143v48.762h73.143v-48.762zM690.956 267.215c0-16.603 13.678-30.208 30.232-30.208 16.798 0 30.476 13.678 30.476 30.208 0 16.823-13.678 30.476-30.476 30.476-16.579 0-30.232-13.653-30.232-30.476zM754.59 96.037c98.743 21.723 250.636 151.138 250.636 151.138s-112.884 175.348-264.046 194.121c-8.558 1-38.278 1.243-43.91 0.731-146.042-14.141-264.046-200.411-264.046-200.411s128.219-125.099 248.71-145.31c14.141-2.926 58.027-2.926 72.655-0.268zM574.171 267.483c0 75.581 65.122 136.753 145.067 136.753s145.067-61.196 145.067-136.753c0-75.849-65.122-137.045-145.067-137.045s-145.067 61.172-145.067 137.045z" />
<glyph unicode="&#xe635;" d="M963.048 475.429v73.143c0 36.084-10.484 48.762-48.762 48.762h-316.952v316.952c0 36.084-11.947 48.762-48.762 48.762h-73.143c-37.79 0-48.762-12.678-48.762-48.762v-316.952h-341.333c-36.084 0-48.762-11.947-48.762-48.762v-73.143c0-37.79 12.678-48.762 48.762-48.762h341.333v-341.333c0-36.815 11.703-48.762 48.762-48.762h73.143c36.084 0 48.762 10.484 48.762 48.762v341.333h316.952c36.815 0 48.762 11.703 48.762 48.762z" />
<glyph unicode="&#xe636;" d="M426.667 714.667c0 64-19.968 96-86.571 96-64 0-84.096-34.645-84.096-96v-32h-42.667c-66.56 0-85.333-32-85.333-96v-256c0-65.237 18.773-76.459 85.333-76.459h597.333c66.688 0 85.504 11.221 85.504 76.459v256c0 64-18.816 96-85.504 96h-42.667v32c0 61.355-22.571 96-86.571 96-66.645 0-84.096-32-84.096-96v-32h-170.667v32z" />
<glyph unicode="&#xe637;" d="M512.005 999.629c289.694-5.437 485.717-227.572 487.619-487.619-5.193-277.065-227.572-485.717-487.619-487.619-48.104 0.195-95.061 7.656-137.947 19.992 9.118 14.75 18.237 31.086 27.38 49.006 19.237 39.107 28.014 81.018 37.912 121.1 4.218 17.189 10.191 39.863 17.896 67.925 8.436-16.14 23.698-30.184 45.812-42.13 57.71-28.087 129.243-18.798 180.614 7.387 72.070 40.911 114.298 104.497 136.899 175.86 43.569 165.522-12.605 324.608-162.718 388.608-181.004 54.516-383-13.531-453.388-175.323-30.744-108.154-28.916-247.003 77.922-292.254 5.608-2.121 10.703-2.121 15.262 0 10.045 5.73 21.675 55.394 19.505 65.829-0.683 3.145-3.17 7.534-7.387 13.141-59.051 79.945-23.064 198.924 32.11 258.56 93.867 80.603 239.909 93.672 325.949 16.847 76.361-89.064 59.002-227.669 9.996-315.953-27.038-43.179-63.39-75.8-112.152-76.386-51.322 1.146-90.039 44.593-76.873 93.769 11.191 57.661 42.252 118.857 43.179 172.715-2.487 44.788-24.893 73.192-66.341 73.704-66.146-8.338-92.867-70.193-93.745-126.391 2.121-26.99 3.73-54.491 15.774-76.873-14.043-56.881-24.893-102.693-32.646-137.46-11.825-61.659-35.060-126.147-38.449-185.88-1.048-19.651-1.219-37.912-0.512-54.76-180.663 85.699-290.645 253.074-291.718 446.537 5.315 281.478 227.621 485.742 487.668 487.668v0z" />
<glyph unicode="&#xe638;" d="M755.814 927.705c146.286-90.868 243.005-254.586 243.785-420.279 0-55.467-2.267-92.94-21.016-166.083h-222.769v586.362zM956.689 292.581c-77.702-146.286-229.108-250.344-394.971-267.386-85.041-5.388-171.618 16.14-244.76 46.153v221.233h639.732zM24.386 514.131c2.146 185.905 108.788 349.964 266.996 431.299l186.636-166.693-435.956-390.656c-11.8 43.057-17.676 85.065-17.676 126.050zM268.195 99.484c-97.524 58.149-163.596 142.385-202.362 235.422l202.362 182.345v-417.768zM707.052 631.867l-368.957 336.53c57.198 19.188 113.396 31.037 169.374 31.232 70.851 0 150.821-14.58 199.582-43.715v-324.047z" />
<glyph unicode="&#xe639;" d="M768 861.867c0 63.122-13.678 76.8-73.143 76.8h-414.476c-60.221 0-73.143-12.898-73.143-76.8v-727.771c0-59.465 13.653-73.143 73.143-73.143h414.476c60.952 0 73.143 13.678 73.143 73.143v727.771zM329.143 816.762h316.952v-585.143h-316.952v585.143zM524.19 134.095h-73.143v48.762h73.143v-48.762z" />
<glyph unicode="&#xe63a;" d="M489.326 323.291l91.672-91.672c0 0 385.219 384.463 384.975 384.707 45.129 45.324 44.617 65.341 0 109.958 0.244 0.488-36.84 36.815-36.84 36.815l-439.808-439.808zM447.634 365.007l439.832 439.784-86.577 86.552-439.808-439.808 86.552-86.528zM764.343 927.915l-36.571 36.571c-46.568 46.568-63.147 47.080-109.958 0l-384.975-384.731 91.672-91.672 439.832 439.832zM196.267 543.183l-171.886-518.802 520.046 170.667-348.16 348.136zM159.695 283.819l128.244-128.293-185.539-55.101 57.295 183.394z" />
<glyph unicode="&#xe63b;" d="M962.975 612.952c-1.444-104.021-52.524-198.352-127.764-258.768-97.764-72.705-189.111-96.962-335.42-98.855v-58.492c0-75.144-43.315-140.341-107.197-169.058-23.519-10.909-46.813-15.529-70.556-15.626-33.465 0.385-66.064 11.326-90.449 24.417v169.058c24.385-15.722 55.379-27.273 81.561-19.893 23.101 8.342 40.363 26.085 40.363 47.486v461.58l146.277-0.032v-284.757c48.77 0.513 81.786 4.62 117.176 12.321 46.299 11.037 92.63 28.299 126.031 57.272 41.005 38.182 60.064 83.582 60.385 133.25-0.61 73.604-37.957 134.823-95.903 170.341-65.679 36.706-138.192 49.155-208.009 49.411-75.272-1.604-149.229-16.075-209.517-52.652-61.54-38.92-94.588-103.283-95.101-167.068 3.914-46.010 15.978-109.989 47.968-139.154l-107.775-113.133c-35.005 34.203-58.042 76.042-73.187 118.331-14.888 44.759-25.123 89.293-25.315 133.956 1.861 108.577 51.24 206.565 129.111 270.447 98.277 75.048 221.678 103.443 334.105 104.021 123.144-2.053 244.811-32.342 335.42-103.379 85.026-70.491 127.026-172.651 127.796-271.025z" />
<glyph unicode="&#xe63c;" d="M548.571 987.429h-341.333c-62.171 0-73.143-13.678-73.143-73.143v-780.19c0-60.709 13.41-73.143 73.143-73.143h585.143c60.952 0 73.143 11.459 73.143 73.143v536.381h-316.952v316.952zM865.524 743.619l-243.81 243.81v-243.81h243.81z" />
<glyph unicode="&#xe63d;" d="M339.7 999.619l489.253-489.277-477.111-477.111-120.271 120.271 356.888 356.84-369.030 369.006z" />
<glyph unicode="&#xe63e;" d="M268.19 89.722l429.324 422.278-429.324 422.278 66.316 65.341 494.446-487.863-494.446-487.375z" />
<glyph unicode="&#xe63f;" d="M963.048 499.81v73.143c0 36.084-10.484 48.762-48.762 48.762h-828.952c-36.084 0-48.762-11.947-48.762-48.762v-73.143c0-37.79 12.678-48.762 48.762-48.762h828.952c36.815 0 48.762 11.703 48.762 48.762z" />
<glyph unicode="&#xe640;" d="M512 879.884c145.798 0 211.383-123.685 219.429-245.589h121.905c-2.194 219.429-113.859 363.349-341.333 365.3-226.011 2.194-341.333-170.252-341.333-365.3h121.149c6.339 121.905 69.022 245.589 220.184 245.589zM853.333 585.143h-682.667c-58.758 0-73.143-15.97-73.143-72.753v-414.476c0-60.709 13.678-73.143 73.143-73.143h682.667c63.61 0 73.143 11.483 73.143 73.143v414.476c0 59.928-11.215 72.753-73.143 72.753zM585.143 146.676h-146.286l48.518 121.417c-30.72 10.24-52.907 39.18-52.907 73.63 0 42.91 34.621 77.531 77.531 77.531s77.531-34.621 77.531-77.531c0-34.377-22.187-63.39-52.907-73.63l48.518-121.417z" />
<glyph unicode="&#xe641;" d="M804.571 684.52c0 171.422-131.803 315.099-304.518 315.099s-305.006-143.774-305.006-315.246c0-56.564 7.899-99.23 34.694-147.992h-0.512l260.754-502.76c9.801-13.434 20.090 0.78 20.090 0.78-8.802-13.19 260.754 501.979 260.754 501.979h-0.219c26.526 48.762 33.963 91.526 33.963 148.139zM359.643 694.174c0 80.872 62.878 146.383 140.41 146.383 77.507 0 140.434-65.512 140.434-146.383s-62.927-146.408-140.434-146.408c-77.531 0-140.41 65.512-140.41 146.408z" />
<glyph unicode="&#xe642;" d="M963.048 768v24.381c0 35.84-11.703 48.762-48.762 48.762h-828.952c-37.303 0-48.762-12.678-48.762-48.762v-24.381c0-37.79 12.678-48.762 48.762-48.762h828.952c36.571 0 48.762 11.703 48.762 48.762zM963.048 499.81v24.381c0 35.84-11.703 48.762-48.762 48.762h-828.952c-37.303 0-48.762-12.678-48.762-48.762v-24.381c0-37.79 12.678-48.762 48.762-48.762h828.952c36.571 0 48.762 11.703 48.762 48.762zM963.048 231.619v24.381c0 35.864-11.703 48.762-48.762 48.762h-828.952c-37.303 0-48.762-12.678-48.762-48.762v-24.381c0-37.79 12.678-48.762 48.762-48.762h828.952c36.571 0 48.762 11.703 48.762 48.762z" />
<glyph unicode="&#xe643;" d="M170.667 609.524h146.286v-414.476h-146.286v414.476zM661.723 623.665c41.179-0.244 93.867-20.48 126.050-53.15 33.378-37.303 41.179-79.458 41.179-131.657v-243.81h-146.286v226.499c0 41.448-16.798 91.941-71.656 93.623-32.183-0.512-52.907-19.017-68.291-50.225-4.389-10.24-3.413-21.723-3.413-33.158l-2.926-236.739h-146.286v414.476h146.286l2.926-54.126c9.972 16.579 23.869 32.158 41.204 44.593 23.406 16.847 50.737 23.211 81.213 23.674zM243.81 808.229c37.547-0.512 74.85-29.989 76.312-74.85 0.975-40.009-33.89-74.85-77.288-74.85h-0.975c-37.303 0-73.874 30.476-75.581 74.85 0.731 39.497 33.89 73.85 77.531 74.85zM24.381 999.619v-950.857h950.857v950.857h-950.857z" />
<glyph unicode="&#xe644;" d="M522.679 774.705c-156.721 242.078-473.917 110.202-473.917-153.502 0-198.022 434.859-507.782 473.917-548.059 39.326 40.277 452.559 350.037 452.559 548.059 0 261.705-295.546 395.581-452.559 153.502z" />
<glyph unicode="&#xe645;" d="M207.97 499.81c0-161.134 130.682-291.864 291.84-291.864 161.134 0 291.864 130.706 291.864 291.864 0 25.356 0.707 48.762 0.707 73.143h73.143v-365.714c0-48.274-24.869-73.143-73.143-73.143h-609.524c-48.274 0-73.143 24.869-73.143 73.143v365.714h97.524c0-24.381 0.731-47.787 0.731-73.143zM12.19 861.135v-722.651c0-82.139 44.13-126.293 126.293-126.293h722.651c82.139 0 126.293 44.154 126.293 126.293v722.651c0 82.139-44.154 126.293-126.293 126.293h-722.651c-82.164 0-126.293-44.154-126.293-126.293zM306.225 499.81c0 107.032 86.552 193.56 193.585 193.56 107.057 0 193.56-86.552 193.56-193.56 0-107.057-86.528-193.56-193.56-193.56s-193.585 86.504-193.585 193.56zM719.238 828.952c0 20.236 16.335 36.571 36.571 36.571h73.143c20.236 0 36.571-16.335 36.571-36.571v-73.143c0-20.236-16.335-36.571-36.571-36.571h-73.143c-20.236 0-36.571 16.335-36.571 36.571v73.143z" />
<glyph unicode="&#xe646;" d="M24.381 853.333v-658.286c0-61.44 12.434-73.143 73.143-73.143h828.952c60.245 0 73.143 11.215 73.143 73.143v658.286c0 59.977-11.483 73.143-73.143 73.143h-828.952c-60.465 0-73.143-10.484-73.143-73.143zM884.785 292.571h-745.082c81.432 118.735 226.231 316.709 263.046 316.709 35.621 0 156.526-159.963 211.163-216.259 0 0 70.242 93.891 107.057 93.891 37.498 0 162.597-193.365 163.816-194.341zM665.868 707.048c0 49.737 40.204 89.941 89.941 89.941s89.941-40.204 89.941-89.941-40.204-89.941-89.941-89.941-89.941 40.204-89.941 89.941z" />
<glyph unicode="&#xe647;" d="M884.785 268.19c-1.219 0.975-126.318 194.341-163.84 194.341-36.815 0-107.057-93.891-107.057-93.891-54.613 56.32-175.543 216.259-211.163 216.259-36.791 0-181.614-197.973-263.046-316.709h745.106zM665.868 682.667c0-49.737 40.204-89.966 89.941-89.966s89.941 40.229 89.941 89.966-40.204 89.966-89.941 89.966-89.941-40.229-89.941-89.966zM24.381 853.333v-658.286c0-61.44 12.434-73.143 73.143-73.143h828.952c60.245 0 73.143 11.215 73.143 73.143v658.286c0 59.977-11.483 73.143-73.143 73.143h-828.952c-60.465 0-73.143-10.484-73.143-73.143zM97.524 853.333h828.952v-658.286h-828.952v658.286z" />
<glyph unicode="&#xe648;" d="M65.341 640.585c-2.438-0.951-3.901-2.194-4.389-3.633l4.389 3.633zM60.952 636.952v-502.906c0-61.172 11.947-73.094 73.143-73.094h170.667c61.196 0 73.143 11.24 73.143 73.143v195.048h219.429v-195.803c0-61.196 12.434-72.631 73.143-72.387 0.975-0.756 170.667 0 170.667 0 61.659 0 73.143 12.824 73.143 73.070v487.814c0 1.95-2.194 3.657-6.583 5.608l-420.084 359.985-426.667-350.476z" />
<glyph unicode="&#xe649;" d="M721.896 73.143h19.042c120.905 1.707 236.227 14.629 256.951 33.914 5.144 41.911 10.971 62.147-184.564 150.43-27.819 14.848-12.898 72.387-12.898 72.387 58.782 42.423 99.035 140.459 99.035 219.209 0 135.802-64.195 200.168-158.525 206.75h-19.042c-94.306-6.583-158.476-70.705-158.476-206.75 0-78.75 40.229-176.762 99.035-219.209 0 0 14.872-57.515-12.873-72.387-195.56-88.283-189.733-108.52-184.588-150.43 20.675-19.285 135.997-32.207 256.902-33.914zM283.014 268.19h19.066c120.905 1.707 236.227 14.629 256.975 33.914 5.144 41.911 10.947 62.147-184.588 150.43-27.794 14.848-12.898 72.387-12.898 72.387 58.758 42.423 99.011 140.434 99.011 219.185 0 135.802-64.146 200.168-158.476 206.75h-19.066c-94.33-6.583-158.476-70.705-158.476-206.75 0-78.75 40.229-176.762 99.011-219.185 0 0 14.872-57.539-12.898-72.387-195.56-88.283-189.708-108.52-184.564-150.43 20.675-19.285 135.997-32.207 256.902-33.914z" />
<glyph unicode="&#xe64a;" d="M260.145 250.392c-33.402 0-66.072-6.095-99.23-10.679-50.956-10.045-97.036-30.525-136.533-71.485v-119.467h448.853c1.463 0 1.95 9.752 1.95 15.116-0.512 34.865-23.674 66.536-51.688 90.697-39.741 33.67-85.602 60.952-129.707 93.623-11.459 1.707-22.674 2.194-33.646 2.194zM24.381 487.619v-241.371c59.465 35.352 114.322 39.522 174.324 41.448 18.53 0 34.621 0.512 48.25 1.219-9.509 12.702-18.798 26.331-27.794 40.472-20.724 32.914-15.848 72.899-0.975 108.495-69.949-9.021-134.339 3.901-193.804 49.737zM198.705 868.693c-17.067-0.244-34.621-4.145-50.956-11.678-33.158-16.116-57.539-42.447-66.56-82.188-6.827-40.984-5.12-84.602 5.12-128.731 12.434-50.249 37.083-98.011 81.701-132.876 33.378-23.65 84.334-27.063 127.244-15.604 33.426 9.996 57.32 41.691 70.485 76.069 11.703 37.303 7.582 79.726-2.658 122.636-13.19 54.857-39.765 107.496-86.577 147.48-21.48 16.603-49.274 25.624-77.8 24.893zM24.381 999.619v-167.497c59.465 57.295 155.55 94.354 243.81 94.354h292.571l-74.362-85.333h-84.358c20.48-19.773 39.229-32.183 54.345-57.295 19.261-32.939 29.501-68.291 29.989-109.007-0.268-39.229-9.752-81.432-34.133-118.004-19.968-29.257-48.494-53.882-78.507-77.288-19.773-19.797-37.059-36.059-38.522-67.56 0.244-23.43 15.628-44.349 36.571-59.465 34.865-27.307 64.853-49.737 97.768-78.019 31.451-27.307 60.709-60.684 79.506-101.669 16.091-37.254 16.335-84.334 5.144-124.075h421.035v609.524h-170.667v-195.048h-73.143v195.048h-195.048v73.143h195.048v195.048h73.143v-195.048h170.667v268.19h-950.857z" />
<glyph unicode="&#xe64b;" d="M512 999.619c-269.312 0-487.619-218.307-487.619-487.619s218.307-487.619 487.619-487.619 487.619 218.307 487.619 487.619-218.307 487.619-487.619 487.619zM512 946.517c239.982 0 434.517-194.536 434.517-434.517s-194.536-434.517-434.517-434.517-434.517 194.536-434.517 434.517 194.536 434.517 434.517 434.517zM296.326 819.273c-12.361-35.986-16.677-75.020-5.583-109.129-13.385-14.824-23.771-31.89-31.183-51.2-19.797-62.562-14.97-142.58 28.379-190.952 15.238-16.725 35.913-30.427 61.903-41.179s59.441-17.627 100.279-20.578c-27.429-12.824-46.763-20.675-53.492-49.006-30.598-20.431-67.779-15.579-94.769 6.632-21.309 15.604-30.988 43.179-54.589 53.443-1.487 1.512-6.12 2.56-13.897 3.34-7.802 0.756-13.946-1.463-18.408-6.656-2.219-2.194-2.072-4.584 0.536-7.192 17.847-14.555 35.084-29.964 45.178-48.421 9.655-20.041 22.967-32.134 33.402-41.423 28.867-19.505 66.682-26.478 100.571-14.092-3.95-23.869 4.218-66.804-3.608-88.088-2.974-5.949-7.241-11.142-12.8-15.628-4.949-4.852-20.358-10.898-17.237-18.334 1.487-3.34 6.656-5.388 15.579-6.144 19.651 0.512 41.911 8.485 53.419 23.942 4.096 5.583 8.85 12.824 8.85 21.723v91.234c0 10.411 3.803 17.774 8.265 22.284 4.462 4.437 8.509 7.851 16.116 8.899v-120.271c0-10.386-12.751-39.351-14.287-42.301-3.389-5.754-10.971-10.996-11.118-17.774 0-2.267 0.805-3.56 3.413-3.877 19.529 0.829 35.547 12.312 43.496 28.404 10.118 15.36 12.41 24.503 15.067 42.252v112.152h24.381v-112.152c0-14.824-2.438-28.94 4.267-42.228 6.68-13.385 27.16-21.943 42.74-25.673 8.192-2.243 12.288-3.096 15.238-2.731 2.974 0.366 3.56 1.634 3.194 3.877-1.755 6.705-11.288 12.507-15.238 17.774-5.193 6.705-13.629 20.797-13.629 42.325v120.247c7.997-1.804 11.288-4.486 16.14-8.899 4.803-4.486 8.241-11.898 8.241-22.309v-91.234c0-8.899 6.437-16.14 10.533-21.723 12.434-15.799 33.329-23.845 52.907-23.942 8.899 0.756 15.189 2.804 16.701 6.144s0.926 6.095-2.779 8.338-8.070 5.583-13.678 9.996c-5.583 4.437-9.655 9.655-12.678 15.628-3.34 38.254-0.024 79.287-2.706 118.004-5.339 42.228-21.577 56.174-54.004 72.363 38.668 2.926 70.437 10.021 95.281 21.163 74.435 36.133 94.988 92.038 95.33 166.985-1.195 48.25-15.092 90.283-46.86 122.514 4.486 17.042 5.754 34.816 3.925 53.37-1.853 18.554-5.778 35.279-11.727 50.127-27.477-1.512-50.517-7.022-69.096-16.677s-31.963-17.822-40.131-24.527c-65.804 14.946-136.29 15.019-199.436-2.219-32.354 26.405-72.363 41.131-110.397 43.398z" />
<glyph unicode="&#xe64c;" d="M840.948 743.624l73.143 0.293 0.195-98.475-73.143 0.61v-200.533c0-47.689 12.044-71.558 42.52-71.558 21.48 0 30.622 6.046 55.003 18.115v-106.74c-24.381-14.238-56.954-21.358-92.94-21.358-50.469 0-85.382 18.554-104.814 55.515-14.531 27.794-21.675 71.558-21.675 131.34l-0.122 195.901c0 0-47.982-0.78-47.982-1.17l-0.658 98.011h48.762c-0.122 0-0.805 96.427-0.902 97.792l122.807 0.366v-98.133l-0.195 0.024zM499.81 280.386v463.238h121.905v-463.238h-121.905zM240.689 750.816c-47.104 0-87.601-15.994-121.539-48.030-35.304-34.158-52.98-76.849-52.98-128.098 0-34.158 11.727-66.121 31.11-96.012 17.286-27.746 36.815-45.568 61.196-53.346v-2.17c-24.381-9.923-34.28-34.889-34.28-74.679 0-30.598 9.899-53.346 34.28-68.34v-2.146c-73.143-22.040-97.524-62.952-97.524-122.709 0-51.956 20.968-89.99 63.878-114.298 33.963-19.188 76.946-28.818 129.56-28.818 128.146 0 192.146 55.198 192.146 165.474 0 69.022-49.615 111.372-148.675 127.025-22.869 3.56-40.155 12.069-51.931 25.6-9.021 9.24-13.556 18.481-13.556 27.77 0 26.331 13.824 41.618 41.521 45.909 42.228 6.412 76.702 26.575 103.351 60.392 26.673 33.816 40.009 73.435 40.009 118.979 0 14.238-2.487 29.525-8.046 45.885 17.993 4.291 41.813 8.192 41.813 11.727v109.934c-48.762-17.067-82.334-25.576-115.566-25.576-29.086 17.018-60.83 25.527-94.769 25.527zM244.858 652.659c20.773 0 37.083-8.216 48.835-24.576 9.679-14.946 14.555-32.768 14.555-53.394 0-49.81-21.138-74.679-63.39-74.679-43.642 0-65.463 24.576-65.463 73.655 0 52.663 21.821 78.994 65.463 78.994zM252.099 218.19c58.173 0 87.308-18.139 87.308-54.418 0-38.424-26.697-57.612-79.994-57.612-60.928 0-91.429 18.578-91.429 55.515 0 37.717 28.038 56.515 84.114 56.515zM632.613 907.903c0-43.91-32.305-79.531-72.192-79.531s-72.192 35.621-72.192 79.531c0 43.91 32.305 79.531 72.192 79.531s72.192-35.621 72.192-79.531z" />
<glyph unicode="&#xe64d;" d="M24.381 853.333v-633.905c0-61.44 12.434-73.143 73.143-73.143h828.952c60.245 0 73.143 11.215 73.143 73.143v512c0 59.977-11.483 73.143-73.143 73.143h-414.476v48.762c0 60.952-12.678 73.143-73.143 73.143h-341.333c-60.465 0-73.143-10.484-73.143-73.143z" />
<glyph unicode="&#xe64e;" d="M693.882 703.39c98.987 0 179.444-80.189 179.444-179.2s-80.482-179.2-179.444-179.2-179.2 80.189-179.2 179.2c0 99.011 80.213 179.2 179.2 179.2zM305.737 703.39c98.987 0 179.2-80.189 179.2-179.2s-80.213-179.2-179.2-179.2-179.444 80.189-179.444 179.2c0 99.011 80.457 179.2 179.444 179.2zM24.381 999.619v-950.857h950.857v950.857h-950.857z" />
<glyph unicode="&#xe64f;" d="M158.476 402.286v-97.524c0.39-68.559 32.768-57.905 56.759-37.327l138.289 124.855v-63.147c0-59.246 13.653-73.143 73.143-73.143h219.429c0 0 127-149.333 128-148.334 18.286-22.333 67.803-14.726 67.048 26.429v121.905h73.143c59.733 0 73.143 14.848 73.143 73.143v365.714c0 58.514-14.385 73.143-73.143 73.143h-243.81v48.762c0 60.221-11.215 73.143-73.143 73.143h-512c-57.539 0-73.143-12.434-73.143-73.143v-316.952c0-59.465 13.41-97.524 73.143-97.524h73.143zM768 329.143v-115.102l-97.524 115.102h-219.429c-18.286 0-24.381 6.583-24.381 24.381v316.952c0 16.335 7.558 24.381 24.381 24.381h438.857c16.798 0 24.381-9.021 24.381-22.918v-318.415c0-17.579-8.753-24.381-24.381-24.381h-121.905z" />
<glyph unicode="&#xe650;" d="M512 999.619c26.356 0 125.342-300.251 151.186-320.024s328.192-25.673 336.238-52.102c8.29-26.502-233.106-217.917-242.859-249.954-9.972-31.866 78.068-335.701 56.832-352.11-21.431-16.408-269.41 165.547-301.373 165.547s-279.918-181.955-301.349-165.547c-21.236 16.433 66.779 320.268 56.783 352.11-9.728 32.012-251.124 223.451-242.834 249.954 8.046 26.429 310.394 32.329 336.238 52.102s124.562 320.024 151.138 320.024z" />
<glyph unicode="&#xe651;" d="M696.808 877.47c7.070 0.244 27.038 0.731 34.621 0.244 27.307 0 69.242 2.438 97.524 0v-121.905h-97.524c-35.596 0-48.762-8.533-48.762-48.762v-97.524h121.905v-121.905h-121.905v-341.333h-121.905v341.333h-97.524v121.905h97.524l-1.487 107.764c0 74.63 15.141 119.954 76.8 146.773 15.872 6.827 40.009 12.922 60.733 13.41zM24.381 999.619v-950.857h950.857v950.857h-950.857z" />
<glyph unicode="&#xe652;" d="M533.723 641.95l108.227-108.227c27.55-27.575 38.278-26.843 65.097 0l162.621 162.621 129.95-130.194v433.469h-433.469l130.194-129.95-162.621-162.621c-26.331-26.331-27.112-38.059 0-65.097zM490.277 382.050l-108.227 108.227c-27.55 27.575-38.278 26.843-65.097 0l-162.621-162.621-129.95 130.194v-433.469h433.469l-130.194 129.95 162.621 162.621c26.331 26.331 27.112 38.059 0 65.097z" />
<glyph unicode="&#xe653;" d="M733.428 824.491l-3.145-2.926-515.73-515.682c-6.071-6.071-10.435-11.654-13.336-16.774-49.737 64.341-78.824 146.286-78.824 236.52 0 214.479 161.548 377.466 375.979 377.466 89.99 0 171.008-28.891 235.057-78.604zM278.845 214.455c4.608 2.853 9.46 6.997 14.775 12.361l516.681 516.657c42.423-61.391 66.95-136.582 66.95-219.282 0-214.187-163.255-378.904-377.442-378.904-83.675 0-159.598 25.234-220.965 69.169zM24.381 524.19c0-262.705 212.968-475.429 475.429-475.429 262.51 0 475.453 212.724 475.453 475.429s-212.943 475.429-475.429 475.429c-262.485 0-475.453-212.724-475.453-475.429z" />
<glyph unicode="&#xe654;" d="M999.619 268.19v438.857c0 0-443.733-309.638-486.888-325.705-42.423 15.336-488.35 325.705-488.35 325.705v-438.857c0-60.952 12.922-73.143 73.143-73.143h828.952c61.659 0 73.143 10.703 73.143 73.143zM998.912 793.088c0 44.398-12.946 60.245-72.436 60.245h-828.952c-61.196 0-73.143-19.017-73.143-63.39l0.731-6.827c0 0 440.539-303.299 487.619-319.878 49.737 19.261 486.888 326.705 486.888 326.705l-0.707 3.145z" />
<glyph unicode="&#xe655;" d="M512.005 999.629c-269.312 0-487.619-218.307-487.619-487.619s218.307-487.619 487.619-487.619 487.619 218.307 487.619 487.619-218.307 487.619-487.619 487.619zM512.005 928.973c106.228 0 203.191-39.741 276.821-105.131-54.101-71.363-136.29-118.882-218.648-151.040-44.885 82.115-100.157 168.692-156.404 244.541 31.476 7.607 64.366 11.63 98.231 11.63zM334.609 889.451c54.345-81.31 107.008-156.721 155.136-242.078-121.685-31.525-259.145-50.444-386.146-50.761 26.77 129.902 114.030 237.763 231.010 292.84zM835.077 775.617c58.173-71.168 93.208-161.938 93.891-260.852-96.451 18.993-192.39 23.991-290.036 14.141-10.996 27.38-24.283 53.37-37.035 81.432 84.187 33.963 174.202 92.087 233.179 165.278v0zM523.61 582.861c10.435-22.211 22.528-45.739 33.865-69.803-135.802-59.88-280.235-139.898-355.23-280.186-66.633 73.899-107.203 171.813-107.203 279.138 0 4.072 0.073 8.143 0.195 12.19 145.432 0.707 288.183 18.895 428.373 58.661zM927.554 477.291c-0.122-1.609-0.268-3.243-0.439-4.852 0.171 1.609 0.317 3.218 0.439 4.852zM743.941 469.172c60.611 0.195 123.246-8.265 179.834-23.162-18.505-116.443-85.26-216.869-179.127-280.064-22.382 101.79-43.715 199.192-81.432 297.399 26.014 3.877 53.175 5.754 80.725 5.827zM925.945 461.614c-0.293-2.389-0.561-4.73-0.902-7.095 0.341 2.389 0.634 4.73 0.902 7.095zM586.050 444.279c38.449-99.279 68.608-209.237 88.844-316.245-50.054-21.26-105.082-33.012-162.889-33.012-96.427 0-185.222 32.768-255.854 87.747 75.508 122.514 192.463 215.211 329.899 261.51z" />
<glyph unicode="&#xe656;" d="M999.619 97.524v24.381c0 36.084-10.484 48.762-48.762 48.762h-828.952c-36.084 0-48.762-11.947-48.762-48.762v-24.381c0-37.79 12.678-48.762 48.762-48.762h828.952c36.815 0 48.762 11.703 48.762 48.762zM633.905 975.238h-195.048c-60.952 0-73.143-11.459-73.143-73.143v-268.19h-243.81l414.476-414.476 414.476 414.476h-243.81v268.19c0 61.684-12.898 73.143-73.143 73.143z" />
<glyph unicode="&#xe657;" d="M316.952 633.905v-414.476h73.143v414.476h-73.143zM463.238 633.905v-414.476h73.143v414.476h-73.143zM609.524 633.905v-414.476h73.143v414.476h-73.143zM682.667 926.476c0 60.952-14.848 73.143-73.143 73.143h-243.81c-61.44 0-72.655-13.41-72.655-73.387l-0.488-72.899h-195.048c-36.084 0-48.762-11.947-48.762-48.762v-24.381c0-37.79 12.678-48.762 48.762-48.762h24.381v-633.905c0-60.709 13.41-73.143 73.143-73.143h585.143c60.952 0 97.524 11.483 97.524 73.143v633.905h24.381c36.815 0 48.762 11.703 48.762 48.762v24.381c0 36.084-10.484 48.762-48.762 48.762h-219.429v73.143zM609.524 926.476v-73.143h-243.81v73.143h243.81zM243.81 731.429h512v-585.143h-512v585.143z" />
<glyph unicode="&#xe658;" d="M463.238 170.667l-195.048-48.762c-11.703-0.975-24.381-12.678-24.381-24.381v-24.381c0-12.19 11.459-24.381 24.381-24.381h487.619c10.484 0 24.381 9.996 24.381 24.381v24.381c-0.488 12.678-13.41 23.893-24.381 24.381l-195.048 48.762h-97.524zM926.476 195.048c63.147 0 73.143 12.898 73.143 73.143v633.905c0 58.295-13.41 73.143-73.143 73.143h-828.952c-59.246 0-73.143-13.166-73.143-73.143v-633.905c0-61.196 12.898-73.143 73.143-73.143h828.952zM877.714 853.333v-536.381h-731.429v536.381h731.429z" />
<glyph unicode="&#xe659;" d="M1255.283 526.434l-405.482 324.428v-162.179c-729.908 0-811.034-405.55-811.034-486.673 162.179 324.427 729.908 162.247 811.034 162.247v-162.179l405.482 324.357z" horiz-adv-x="1294" />
<glyph unicode="&#xe65a;" d="M832 320c-54.848 0-54.848 38.144-54.848 57.6 0 225.792-68.544 417.344-205.056 488.448-13.568 69.824-63.808 157.952-124.096 157.952s-110.528-88.128-124.032-157.952c-136.512-71.104-205.12-262.656-205.12-488.448 0-19.456 0-57.6-54.848-57.6h-64v-128h896v128h-64zM448 0c70.656 0 128 57.344 128 128h-256c0-70.656 57.344-128 128-128zM558.272 192c-22.272 38.080-63.040 64-110.272 64s-88.128-25.92-110.272-64h220.544z" horiz-adv-x="896" />
<glyph unicode="&#xe65b;" d="M469.333 1024h-469.333v-469.333l554.667-554.667 469.333 469.333-554.667 554.667zM234.667 682.667c-58.91 0-106.667 47.756-106.667 106.667s47.756 106.667 106.667 106.667 106.667-47.756 106.667-106.667-47.756-106.667-106.667-106.667z" />
<glyph unicode="&#xe65c;" d="M277.905 273.416c-15.967 15.967-31.25 32.284-45.737 48.795 0-0.001-210.835-268.877-221.501-279.544s-10.667-42.667-10.667-42.667 32 0 42.667 10.667 279.228 221.249 279.228 221.249c-14.882 13.232-29.582 27.092-43.99 41.5zM899.397 899.397c-99.26 99.26-209.9 149.551-247.124 112.329-27.021-27.021-7.912-92.738 42.561-164.702l-321.667-221.406c-84.103 54.1-156.996 73.076-187.762 42.309-47.103-47.103 22.364-192.94 156.015-326.592 133.652-133.653 279.394-203.021 326.496-155.918 30.751 30.751 11.851 103.544-42.158 187.565l221.271 321.85c71.962-50.47 137.676-69.579 164.696-42.558 37.223 37.223-13.068 147.863-112.329 247.124z" />
<glyph unicode="&#xe65d;" d="M728.731 728.731c-99.26 99.26-209.9 149.551-247.124 112.329-27.021-27.021-7.912-92.738 42.561-164.702l-321.667-221.406c-84.103 54.1-156.996 73.076-187.762 42.309-47.103-47.103 22.363-192.94 156.015-326.592 133.652-133.653 279.394-203.021 326.496-155.918 30.751 30.751 11.851 103.544-42.158 187.565l221.271 321.85c71.962-50.47 137.676-69.579 164.696-42.558 37.223 37.223-13.068 147.863-112.329 247.124zM21.333 21.333c21.333-21.333 51.914-21.333 51.914-21.333 44.135 34.71 77.981 61.249 77.981 61.249-14.882 13.232-29.582 27.092-43.99 41.5-15.967 15.967-31.25 32.284-45.737 48.795 0 0-26.663-34.003-61.501-78.3 0-0.001 0-30.577 21.333-51.91z" />
<glyph unicode="&#xe65e;" d="M853.333 597.333l128 128c0 0 42.667 42.667 42.667 128 0 56.889-56.889 113.778-56.889 113.778s-56.889 56.889-113.778 56.889c-85.333 0-128-42.667-128-42.667l-128-128c-23.234 23.234-29.179 29.179-42.667 42.667-23.061 23.061-56.544 17.746-85.344-0.843-16.38-10.572-31.244-25.437-41.816-41.818-18.586-28.799-23.9-62.279-0.84-85.34 56.889-56.889 284.444-284.444 341.333-341.333 23.061-23.061 56.538-17.754 85.334 0.825 16.387 10.572 31.259 25.443 41.833 41.828 18.585 28.8 23.897 62.283 0.833 85.347-13.488 13.483-19.433 19.428-42.667 42.667zM451.667 622.333l-281-281-170.667-330.667c0-10.667 0-10.667 10.667-10.667 0.44 0 330.667 170.667 330.667 170.667l281 281-170.667 170.667z" />
<glyph unicode="&#xe65f;" d="M616.448 228.762c-58.982 4.096-109.158 32.154-155.034 69.222-6.963 5.734-39.526 38.093-39.526 38.093l-29.901 33.792-88.883 79.872c-12.288 12.083-7.782 36.25 4.71 48.333 6.144 6.144 20.275 12.698 28.262 12.698 8.192 0 23.552-4.71 29.696-10.854l121.856-120.218c12.083-11.878 24.781-25.6 39.117-34.202 33.382-20.275 68.198-37.274 108.544-37.274 4.301 0 10.035 0.41 16.589 1.024l-35.43 35.43c-15.565 15.36-23.962 36.045-23.962 57.754 0 21.914 8.397 42.598 23.962 57.958l29.082 29.082c15.36 15.565 36.045 23.962 57.754 23.962 21.914 0 42.598-8.397 57.958-23.962l57.958-57.958 18.637 18.842c25.6 75.571 7.373 161.997-37.478 213.811-38.502 44.442-88.883 69.837-151.962 69.837-41.984 0-88.678-24.576-124.928-48.333-18.227 13.722-47.923 43.827-68.608 53.043 51.405 42.189 115.917 79.462 179.61 79.462 71.27 0 159.744-27.034 214.016-80.282 65.536-64.922 100.966-145.408 98.918-225.485 17.203-2.458 32.973-10.445 45.466-22.938l7.168-7.168c14.336 102.81-16.589 212.787-98.509 293.683-64.307 63.693-130.253 105.472-256.205 104.653-109.773-0.614-159.744-40.141-226.918-98.714l-13.517-18.227c-15.974 8.397-57.754 8.192-74.342 8.192-77.619 0-161.178-27.648-216.064-81.715-113.459-111.206-130.253-305.152-17.203-421.274 47.309-48.538 159.949-86.221 240.435-84.582l255.795 0.205c2.662 16.589 10.65 32.154 22.938 44.237v0zM331.366 231.424c-58.778-4.71-134.963 29.696-177.971 71.885-88.474 87.040-90.522 241.869-14.541 320.922 41.574 43.213 110.592 89.293 188.826 87.654 0.205 0 35.635 0.819 46.694-0.819 11.878-1.638 28.262-5.325 39.526-8.806 21.504-6.554 33.792-28.672 52.224-41.37 8.806-5.734 21.299-16.998 29.082-24.166 2.458-2.048 98.509-95.027 98.509-95.027 12.493-12.288 11.674-40.346-0.819-52.429-6.144-6.144-20.685-14.336-28.672-14.336-8.192 0-28.262 3.277-34.406 9.421l-95.232 93.594c-24.986 23.347-39.322 55.296-67.584 60.416-10.035 1.843-42.803-0.819-44.442-0.819-41.984-1.024-74.342-22.323-105.677-49.971-46.899-41.165-66.97-154.010-11.264-215.245 29.082-32.154 94.413-64.512 132.096-63.488h29.082c0 0 53.453-62.874 68.813-73.728l-104.243-3.686zM949.453 446.054c-7.987 7.987-20.89 7.987-28.877 0l-101.376-101.376-101.376 101.376c-7.987 7.987-20.89 7.987-28.877 0l-29.082-29.082c-7.987-7.987-7.987-20.89 0-28.877l101.376-101.376-101.376-101.376c-7.987-7.987-7.987-20.89 0-28.877l29.082-29.082c7.987-7.987 20.89-7.987 28.877 0l101.376 101.376 101.376-101.376c7.987-7.987 20.89-7.987 28.877 0l29.082 29.082c7.987 7.987 7.987 20.89 0 28.877l-101.376 101.376 101.376 101.376c7.987 7.987 7.987 20.89 0 28.877l-29.082 29.082z" />
<glyph unicode="&#xe660;" d="M298.667 725.333h-256v235.516c0 0-1.697 20.484 20.484 20.484s235.516 0 235.516 0v-256zM384 981.333h256v-256h-256v256zM981.333 725.333h-256v256c0 0 215.031 0 235.516 0s20.484-21.373 20.484-21.373v-234.627zM42.667 640h256v-256h-256v256zM384 640h256v-256h-256v256zM725.333 640h256v-256h-256v256zM298.667 42.667c0 0-215.030 0-235.516 0s-20.484 20.484-20.484 20.484v235.516h256v-256zM384 298.667h256v-256h-256v256zM981.333 63.151c0 0-0.080-20.484-21.373-20.484s-234.627 0-234.627 0v256h256v-235.516z" />
<glyph unicode="&#xe661;" d="M213.333 981.333c-85.139 0-143.953 0-149.373 0-21.374 0-21.293-21.293-21.293-21.293v-149.373h170.667v170.667zM959.151 981.333c-14.826 0-400.141 0-660.484 0v-170.667h682.667v149.373c0 0 0 21.293-22.182 21.293zM298.667 725.333h682.667v-170.667h-682.667v170.667zM42.667 725.333h170.667v-170.667h-170.667v170.667zM42.667 469.333h170.667v-170.667h-170.667v170.667zM298.667 469.333h682.667v-170.667h-682.667v170.667zM213.333 213.333h-170.667v-149.373c0 0 0.001-21.293 21.293-21.293 5.395 0 64.204 0 149.373 0v170.667zM981.333 63.96v149.373h-682.667v-170.667c260.854 0 647.362 0 662.22 0 22.22 0 20.446 21.293 20.446 21.293z" />
<glyph unicode="&#xe662;" d="M512 1024c-282.781 0-512-229.25-512-512s229.219-512 512-512 512 229.25 512 512-229.219 512-512 512zM512 128c-212.077 0-384 171.923-384 384s171.923 384 384 384 384-171.923 384-384-171.923-384-384-384zM554.68 585.907c-0.004 0.004-0.009 0.006-0.013 0.009v256.751c0 5.867-4.8 10.667-10.667 10.667h-64c-5.867 0-10.667-4.8-10.667-10.667v-256.752c-25.505-14.756-42.667-42.33-42.667-73.915 0-7.643 1.011-15.049 2.895-22.097l-122.883-122.883c-4.148-4.148-4.148-10.938 0-15.086l45.255-45.254c4.148-4.148 10.938-4.148 15.086 0l122.881 122.881c7.049-1.884 14.456-2.895 22.099-2.895 47.129 0 85.333 38.204 85.333 85.333 0 31.58-17.156 59.151-42.653 73.908z" />
<glyph unicode="&#xe663;" d="M256 512c0-70.667-57.313-128-128-128s-128 57.333-128 128 57.313 128 128 128 128-57.333 128-128zM640 512c0-70.667-57.333-128-128-128-70.687 0-128 57.333-128 128s57.313 128 128 128c70.667 0 128-57.333 128-128zM1024 512c0-70.667-57.333-128-128-128s-128 57.333-128 128 57.333 128 128 128 128-57.333 128-128z" />
<glyph unicode="&#xe664;" d="M298.667 725.333h-256c-23.468 0-42.667-19.201-42.667-42.667v-341.333c0-23.466 19.198-42.667 42.667-42.667h256c23.468 0 42.667 19.201 42.667 42.667v341.333c0 23.466-19.198 42.667-42.667 42.667zM981.333 981.333h-170.667c-23.468 0-42.667-19.201-42.667-42.667v-170.667c0-23.466 19.198-42.667 42.667-42.667h170.667c23.468 0 42.667 19.201 42.667 42.667v170.667c0 23.466-19.198 42.667-42.667 42.667zM981.333 640h-170.667c-23.468 0-42.667-19.201-42.667-42.667v-170.667c0-23.466 19.198-42.667 42.667-42.667h170.667c23.468 0 42.667 19.201 42.667 42.667v170.667c0 23.466-19.198 42.667-42.667 42.667zM981.333 298.667h-170.667c-23.468 0-42.667-19.201-42.667-42.667v-170.667c0-23.466 19.198-42.667 42.667-42.667h170.667c23.468 0 42.667 19.201 42.667 42.667v170.667c0 23.466-19.198 42.667-42.667 42.667zM512 896v-341.333h-128v-85.333h128v-341.333h213.333v85.333h-128v256h128v85.333h-128v256h128v85.333z" />
<glyph unicode="&#xe665;" d="M1013.333 906.667l-106.667 106.667c0 0-10.667 10.667-32 10.667s-32-10.667-32-10.667l-74.667-74.667 170.667-170.667 74.667 74.667c0 0 10.667 10.667 10.667 32s-10.667 32-10.667 32zM874.663 703.996l-511.984-511.985-170.661 170.661 511.984 511.984 170.661-170.66zM298.667 128l-170.667 170.667-128-288c0-10.667 0-10.667 10.667-10.667 0.444 0 288 128 288 128z" />
<glyph unicode="&#xe666;" d="M538.938 938.667c-107.781 0-154.937-42.667-154.938-85.333 0-64 85.333-95.999 85.333-138.667s-10.667-74.667-85.333-74.667c-78.844 0-96 42.667-213.333 42.667-161.687 0-170.666-175.125-170.666-175.125 0-336.874 448-336.874 512-336.874s512-0.001 512 352c-0.001 323.374-377.251 415.999-485.063 415.999zM170.667 373.333c-53.020 0-96 42.981-96 96s42.98 96 96 96 96-42.981 96-96-42.98-96-96-96zM384 256c-47.128 0-85.333 38.205-85.333 85.333s38.205 85.333 85.333 85.333 85.333-38.205 85.333-85.333-38.205-85.333-85.333-85.333zM853.333 704c35.347 0 64-28.655 64-64s-28.653-64-64-64-64 28.655-64 64 28.653 64 64 64zM640 256c-47.129 0-85.333 38.205-85.333 85.333s38.204 85.333 85.333 85.333 85.333-38.205 85.333-85.333-38.204-85.333-85.333-85.333zM853.333 352c-41.237 0-74.667 33.429-74.667 74.667s33.429 74.667 74.667 74.667 74.667-33.429 74.667-74.667-33.429-74.667-74.667-74.667z" />
<glyph unicode="&#xe667;" d="M960 810.667c11.749 0 21.333 9.583 21.333 21.333v128c0 11.75-9.584 21.333-21.333 21.333h-938.667c-11.751 0-21.333-9.583-21.333-21.333v-128c0-11.75 9.582-21.333 21.333-21.333h149.333v-682.667c0 0 0-42.667 42.667-42.667s746.667 0 746.667 0c11.749 0 21.333 9.583 21.333 21.333v85.333c0 11.75-9.584 21.333-21.333 21.333h-661.333v85.333h661.333c11.749 0 21.333 9.583 21.333 21.333v85.333c0 11.75-9.584 21.333-21.333 21.333h-661.333v85.333h661.333c11.749 0 21.333 9.583 21.333 21.333v85.333c0 11.75-9.584 21.333-21.333 21.333h-661.333v170.667h661.333z" />
<glyph unicode="&#xe668;" d="M768 512c-141.376 0-256-114.624-256-256s114.624-256 256-256 256 114.624 256 256-114.624 256-256 256zM938.667 213.333h-128v-128h-85.333v128h-128v85.333h128v128h85.333v-128h128v-85.333zM426.667 256c0 14.479 1.205 28.656 2.964 42.667h-130.964v85.333h153.13c20.138 49.56 51.641 93.193 91.19 128h-244.32v85.333h618.667c11.75 0 21.333 9.583 21.333 21.333v85.333c0 11.75-9.583 21.333-21.333 21.333h-618.667v128h618.667c11.75 0 21.333 9.583 21.333 21.333v128c0 11.75-9.583 21.333-21.333 21.333h-896c-11.753 0-21.333-9.583-21.333-21.333v-128c0-11.75 9.58-21.333 21.333-21.333h149.333v-640c0 0 0-42.667 42.667-42.667 15.252 0 109.675 0 224.568 0-7.076 27.331-11.235 55.823-11.235 85.333z" />
<glyph unicode="&#xe669;" d="M384 213.333l-85.333-170.667v-32c0 0 0-10.667 10.667-10.667s394.667 0 405.333 0 10.667 10.667 10.667 10.667v32l-85.333 170.667h-256zM981.333 981.333c-42.667 0-896 0-938.667 0s-42.667-42.667-42.667-42.667v-597.333c0 0 0-42.667 42.667-42.667s896 0 938.667 0 42.667 42.667 42.667 42.667v597.333c0 0 0 42.667-42.667 42.667zM896 426.667h-768v426.667h768v-426.667z" />
<glyph unicode="&#xe66a;" d="M821.333 640l128-128-96-96v-117.333c0 0 0-85.333 85.333-85.333s85.333 85.333 85.333 85.333v85.333c0 234.667-202.667 256-202.667 256zM597.333 746.667v-234.667c0 0 0-128-128-128s-128 128-128 128v234.667l-85.333-85.333v192c0 0 0 85.333 85.333 85.333s85.333-85.333 85.333-85.333v-341.333c0 0 0-42.667 42.667-42.667s42.667 42.667 42.667 42.667v341.333c0 0 0 170.667-170.667 170.667s-170.667-170.667-170.667-170.667v-277.333c0 0-106.667-106.667-149.333-149.333s0-85.333 0-85.333l277.333-277.333c0 0 42.667-42.667 85.333 0s448 448 448 448l-234.667 234.667z" />
<glyph unicode="&#xe66b;" d="M384 1024v-192c0 0 0-21.333 21.333-21.333s192 0 192 0l-213.333 213.333zM725.333 426.667c-85.333 0-85.333 85.333-85.333 85.333v213.333h-213.333c0 0-42.667 0-42.667-42.667s0-597.333 0-640 42.667-42.667 42.667-42.667h469.333c0 0 42.667 0 42.667 42.667s0 384 0 384-145.084 0-213.333 0zM725.333 725.333v-192c0 0 0-21.333 21.333-21.333s192 0 192 0l-213.333 213.333zM298.667 810.667v213.333h-213.333c0 0-42.667 0-42.667-42.667s0-597.333 0-640 42.667-42.667 42.667-42.667h213.333v512z" />
<glyph unicode="&#xe66c;" d="M853.333 511.111h-42.667v192c0 153.167-124.167 277.333-277.333 277.333s-277.333-124.166-277.333-277.333v-192c0 0 0 0-42.667 0s-42.667-42.667-42.667-42.667v-384c0 0 0-42.667 42.667-42.667h640c42.667 0 42.667 42.667 42.667 42.667v384c0 0 0 42.667-42.667 42.667zM597.333 170.667h-128l20.235 131.524c-18.718 13.566-30.901 35.592-30.901 60.476 0 41.237 33.429 74.667 74.667 74.667s74.667-33.429 74.667-74.667c0-24.884-12.183-46.91-30.901-60.476l20.235-131.524zM682.667 511.111h-298.667v192c0 82.475 66.859 149.333 149.333 149.333s149.333-66.859 149.333-149.333v-192z" />
<glyph unicode="&#xe66d;" d="M981.333 512h-426.667v234.667c0 153.167-124.167 277.333-277.333 277.333s-277.333-124.166-277.333-277.333v-106.667h128v106.667c0 82.475 66.86 149.333 149.333 149.333s149.333-66.859 149.333-149.333v-234.667c-32.917 0-67.001 0-85.333 0-42.667 0-42.667-42.667-42.667-42.667v-426.667c0 0 0-42.667 42.667-42.667h640c42.667 0 42.667 42.667 42.667 42.667v426.667c0 0 0 42.667-42.667 42.667zM725.333 128h-128l20.235 131.524c-18.718 13.566-30.901 35.592-30.901 60.476 0 41.237 33.429 74.667 74.667 74.667s74.667-33.429 74.667-74.667c0-24.884-12.183-46.91-30.901-60.476l20.235-131.524z" />
<glyph unicode="&#xe66e;" d="M632.708 853.333c4.708 13.333 7.292 27.708 7.292 42.667 0 70.667-57.333 128-128 128s-128-57.333-128-128c0-14.958 2.583-29.333 7.292-42.667h-92.625v-128h426.667v128h-92.625zM448 896c0 35.292 28.708 64 64 64s64-28.708 64-64-28.708-64-64-64-64 28.708-64 64zM853.333 853.333c-42.667 0-42.667 0-42.667 0v-170.667c0 0 0-42.667-42.667-42.667s-469.333 0-512 0-42.667 42.667-42.667 42.667v170.667c0 0 0 0-42.667 0s-42.667-42.667-42.667-42.667 0-725.333 0-768 42.667-42.667 42.667-42.667h682.667c0 0 42.667 0 42.667 42.667s0 768 0 768 0 42.667-42.667 42.667zM682.667 384h-53.333l-21.333 42.667h-53.333v-213.333h42.667v-85.333h-170.667v85.333h42.667v213.333h-53.333l-21.333-42.667h-53.333v128h341.333v-128z" />
<glyph unicode="&#xe66f;" d="M894.737 852.070c-93.78 105.476-230.494 171.93-382.737 171.93-253.695 0-464.289-184.516-504.916-426.667h174.336c37.892 147.22 171.532 256 330.58 256 105.121 0 199.126-47.532 261.736-122.264l-133.736-133.736h384v384l-129.263-129.263zM842.58 426.667c-37.892-147.22-171.532-256-330.58-256-105.121 0-199.126 47.532-261.736 122.264l133.736 133.736h-384v-384l129.263 129.263c93.78-105.476 230.494-171.93 382.737-171.93 253.695 0 464.289 184.516 504.915 426.667h-174.335z" />
<glyph unicode="&#xe670;" d="M1316.172 996.324c-268.343 0-485.902-217.558-485.902-485.93 0-268.343 217.558-485.902 485.902-485.902 268.371 0 485.93 217.558 485.93 485.902 0 268.371-217.558 485.93-485.93 485.93v0zM1514.247 455.597h-143.249v-143.249c0-30.139-24.659-54.826-54.826-54.826-30.139 0-54.798 24.687-54.798 54.826v143.249h-143.249c-30.139 0-54.826 24.659-54.826 54.798 0 30.166 24.687 54.826 54.826 54.826h143.249v143.249c0 30.139 24.659 54.798 54.798 54.798 30.166 0 54.826-24.659 54.826-54.798v-143.249h143.249c30.139 0 54.826-24.659 54.826-54.826 0-30.139-24.687-54.798-54.826-54.798v0zM470.486 512c0-22.927-18.586-41.514-41.514-41.514s-41.514 18.586-41.514 41.514c0 22.927 18.586 41.514 41.514 41.514s41.514-18.586 41.514-41.514zM332.108 512c0-22.927-18.586-41.514-41.514-41.514s-41.514 18.586-41.514 41.514c0 22.927 18.586 41.514 41.514 41.514s41.514-18.586 41.514-41.514zM608.865 512c0-22.927-18.586-41.514-41.514-41.514s-41.514 18.586-41.514 41.514c0 22.927 18.586 41.514 41.514 41.514s41.514-18.586 41.514-41.514zM747.243 512c0-22.927-18.586-41.514-41.514-41.514s-41.514 18.586-41.514 41.514c0 22.927 18.586 41.514 41.514 41.514s41.514-18.586 41.514-41.514zM37.334 300.285c-14.89 15.121-23.054 35.264-23.054 56.705v61.699c0 21.469 8.164 41.584 23.054 56.733 9.188 9.366 20.591 16.363 32.962 20.115l8.884 2.708v-29.255l-4.456-1.721c-6.781-2.624-12.786-6.601-17.851-11.764-9.659-9.818-14.945-22.908-14.945-36.788v-61.727c0-13.88 5.286-26.97 14.945-36.788 9.631-9.846 22.445-15.262 36.089-15.262 13.616 0 26.458 5.417 36.117 15.234 9.659 9.846 14.945 22.936 14.945 36.816 0.028 4.316 0 61.699 0 61.699 0 21.356-13.174 40.85-32.851 48.552l-4.428 1.749v29.227l8.939-2.737c32.962-10.156 55.988-41.725 55.988-76.792v-61.699c0-21.441-8.192-41.584-23.054-56.705-14.834-15.178-34.622-23.528-55.656-23.528-21.034 0.028-40.794 8.379-55.628 23.528zM106.745 534.997l4.483 1.652c6.753 2.519 12.758 6.338 17.851 11.322 9.659 9.426 14.945 21.995 14.945 35.321v59.239c0 13.354-5.286 25.895-14.945 35.349s-22.5 14.654-36.144 14.654c-13.616 0-26.43-5.201-36.061-14.654-9.659-9.426-14.945-21.995-14.945-35.349-0.028-4.144 0-59.212 0-59.212 0-20.505 13.174-39.249 32.823-46.644l4.428-1.652v-28.089l-8.912 2.655c-32.962 9.751-55.988 40.062-55.988 73.704 0 0-0.028 55.203 0 59.32 0 20.505 8.164 39.845 23.026 54.391 14.89 14.546 34.622 22.563 55.628 22.563 21.034 0 40.794-8.018 55.683-22.563 14.862-14.546 23.054-33.913 23.054-54.472v-59.239c0-20.532-8.192-39.872-23.054-54.445-9.244-9.020-20.618-15.71-32.934-19.313l-8.939-2.627v28.089zM83.027 581.189h27.676v-166.054h-27.676v166.054z" horiz-adv-x="2657" />
<glyph unicode="&#xe671;" d="M1035.815 827.077v59.077c0 10.503-9.19 19.692-19.692 19.692h-374.154c-31.508 0-60.39-15.754-78.769-39.385 0 0 0 0 0 0s0 0 0 0c-18.379 23.631-45.949 39.385-78.769 39.385h-374.154c-10.503 0-19.692-9.19-19.692-19.692v-59.077h-39.385v-669.538h424.041c21.005-23.631 52.513-39.385 87.959-39.385s66.954 15.754 87.959 39.385h424.041v669.538h-39.385zM129.969 866.462h354.462c32.821 0 59.077-26.256 59.077-59.077v-376.779c0-10.503 9.19-19.692 19.692-19.692s19.692 9.19 19.692 19.692v376.779c0 32.821 26.256 59.077 59.077 59.077h354.462v-630.154h-354.462c-31.508 0-60.39-15.754-78.769-39.385 0 0 0 0 0 0s0 0 0 0c-18.379 23.631-45.949 39.385-78.769 39.385h-354.462v630.154z" horiz-adv-x="1128" />
<glyph unicode="&#xe672;" d="M496.079 853.054c127.372-102.232-21.787-258.095-98.881-335.188-78.769-78.769-157.538-164.242-167.594-281.558-1.676-21.787 31.843-21.787 33.519 0 11.732 154.187 157.538 244.687 246.363 355.3 65.362 80.445 103.908 209.493 10.056 286.586-16.759 13.408-40.223-10.056-23.463-25.139v0zM167.594 251.391c8.38-30.167 21.787-58.658 31.843-87.149 8.38-20.111 10.056-40.223 26.815-53.63 6.704-5.028 18.435-1.676 23.463 6.704 28.491 55.306 62.010 102.232 112.288 139.103 16.759 13.408-6.704 36.871-23.463 23.463-51.954-40.223-87.149-88.825-117.316-145.807 8.38 1.676 15.083 3.352 23.463 6.704-8.38 6.704-15.083 43.574-20.111 55.306-8.38 21.787-16.759 43.574-23.463 65.362-6.704 20.111-40.223 10.056-33.519-10.056v0z" horiz-adv-x="907" />
<glyph unicode="&#xe673;" d="M512 192h320v320h-320v-320zM512 576h320v320h-320v-320zM128 192h320v320h-320v-320zM128 576h320v320h-320v-320z" />
<glyph unicode="&#xe674;" d="M773.76 792.32c-74.24 81.28-187.52 167.68-302.080 167.68-216.32 0-391.68-158.080-405.76-385.92h103.040c14.080 163.2 143.36 269.44 302.72 269.44 83.2 0 178.56-62.72 233.6-119.68 2.56-2.56-129.28-147.84-129.28-147.84h320v320.64c0 0-120.96-105.6-122.24-104.32zM188.16 293.76c74.24-81.28 187.52-167.68 302.080-167.68 216.32 0 394.24 158.080 408.32 385.92h-103.040c-14.080-163.2-145.92-269.44-305.28-269.44-83.2 0-178.56 62.72-233.6 119.68-1.92 1.92 127.36 149.76 127.36 149.76h-320v-320c0 0 122.88 103.040 124.16 101.76z" />
<glyph unicode="&#xe675;" d="M448.64 831.36l-1.28-597.76c0 0-22.4-31.36-24.96-33.92-16-16.64-102.4-33.92-102.4-33.92v-37.76l384-1.28v35.2c0 0-89.6 28.16-104.96 40.32-14.080 10.88-21.12 32-21.12 32v597.76h126.080c0 0 58.24 0.64 90.24-24.32 31.36-24.96 64.64-133.76 64.64-133.76h39.040l-33.28 221.44-706.56-0.64-35.84-221.44 37.76 1.28c0 0 40.32 105.6 68.48 130.56s87.68 25.6 87.68 25.6l132.48 0.64z" />
<glyph unicode="&#xe676;" d="M345.6 257.92c17.92-106.24 105.6-193.92 216.32-193.92 90.24 0 168.32 52.48 204.16 128h193.92v448h-192v334.080l-787.84-716.16h365.44zM342.4 314.24l-224-0.64 585.6 523.52-0.64-197.12h-127.36c0 0-1.28-128 0-128-119.040 0-224.64-82.56-233.6-197.76v0zM392.96 287.36c0 92.8 75.52 167.68 168.96 167.68s169.6-74.88 169.6-167.68c0-92.8-76.16-167.68-169.6-167.68s-168.96 74.88-168.96 167.68v0z" />
<glyph unicode="&#xe677;" d="M223.36 595.84c-23.040-65.92-137.6-426.88-164.48-506.88-2.56-5.76 6.4-25.6 11.52-25.6 10.24 0.64 44.16-1.92 75.52 2.56 6.4 0.64 8.96 2.56 10.24 8.96 27.52 83.84 130.56 357.12 175.36 506.88 0 0 139.52 0.64 164.48 1.92l108.16-159.36c-68.48-76.8-163.84-145.92-234.24-225.28-3.84-2.56-1.28-7.68 1.92-7.68h108.16c5.12 0 124.8 117.12 165.76 169.6h3.2c0 0 78.72-169.6 83.2-169.6h103.040c4.48 0 7.040 3.84 4.48 7.68l-124.8 211.84c62.72 68.48 158.080 156.8 211.2 218.24 3.84 3.2 2.56 23.68-3.2 23.68h-84.48c-5.12 0-23.040-8.96-26.88-13.44l-143.36-161.92-5.12-2.56-78.080 161.28c-1.28 3.2-12.16 16.64-16.64 16.64l-40.32 3.84-168.32 3.2 6.4 56.96c33.28 151.040 109.44 124.8 162.56 124.8 19.2 0 56.96-19.2 71.68-23.68 3.84-1.28 6.4 1.92 7.68 7.040l23.040 57.6c1.28 3.84-0.64 7.68-5.12 10.24-11.52 5.12-70.4 14.72-100.48 14.72-126.080 0-220.8-0.64-264.32-196.48l-16-54.4h-124.8c-3.84 0-10.88-3.84-26.88-37.12l-7.040-20.48v-16.64c0.64-0.64 136.96 13.44 136.96 13.44z" />
<glyph unicode="&#xe678;" d="M416 928c-17.92-17.92-32-52.48-32-77.44v-18.56c-16.64-2.56-33.28-3.2-49.28-6.4-32.64-7.68-62.080-17.92-85.76-28.16-32.64-14.080-56.96-43.52-56.96-61.44s14.080-32 32-32h640c17.92 0 32 14.080 32 32s-24.32 46.72-56.96 61.44c-24.96 10.88-56.32 22.4-90.88 30.080-14.080 2.56-28.8 2.56-44.16 4.48v18.56c0 24.96-14.080 59.52-32 77.44s-52.48 32-77.44 32h-101.12c-24.96 0-59.52-14.080-77.44-32v0zM448 832v64h192v-64c-35.2 1.92-68.48 2.56-96 2.56-26.88 0-60.8 0-96-2.56v0zM576 192v448h-64v-448h-64v448h-64v-448h-64v448h-64v-384c0-67.2 46.72-128 115.2-128h345.6c68.48 0 115.2 60.8 115.2 128v384h-64v-448h-64v448h-64v-448h-64z" />
<glyph unicode="&#xe679;" d="M897.28 370.56l-1.28-2.56zM896 223.36l12.8 12.16c158.72 158.72 147.2 398.080 3.84 538.24-69.76 68.48-170.88 122.24-268.16 122.24s-187.52-42.24-256.64-111.36l-17.28-17.92c-16.64 2.56-40.96 1.92-55.68 1.92-83.2 0-161.92-35.84-222.080-94.080-129.92-124.8-118.4-328.32 1.92-459.52 56.32-61.44 163.2-87.040 245.76-87.040h291.84l7.040 0.64 0.64 84.48-1.28-0.64c-69.12 0-153.6 39.040-205.44 83.2l-119.040 119.68c-10.24 10.24-21.12 30.080-21.12 44.8s2.56 24.32 12.8 33.92c17.92 17.92 54.4 20.48 74.24 0 0 0 129.92-136.96 142.72-145.28 26.24-16 72.32-32 117.12-33.92v197.12c0 35.2 28.8 64 64 64h111.36c-9.6 23.68-23.040 45.44-40.96 62.72-34.56 35.84-83.84 56.32-133.76 56.32-29.44 0-55.68-5.12-81.28-19.2-5.76-3.2-18.56-8.96-18.56-8.96l-75.52 65.92c0 0 7.68 7.68 12.8 11.52 48 35.2 102.4 53.12 166.4 53.12 72.32-0.64 145.28-31.36 198.4-86.4 55.040-56.32 85.76-126.72 85.76-206.080 0-48-10.24-93.44-31.36-134.4l-1.28-147.2zM346.88 195.2c-63.36 0-137.6 26.24-185.6 74.88-44.16 44.8-68.48 101.12-68.48 170.88 0 67.84 20.48 131.2 65.92 177.92 46.72 49.28 105.6 75.52 170.24 76.16 13.44 0 24.96-0.64 37.76-2.56 12.16-1.92 25.6-5.12 38.4-8.96 22.4-7.040 40.96-16.64 61.44-30.080 9.6-7.040 20.48-16 28.8-23.68l91.52-92.16c21.12-21.12 24.32-52.48 3.2-74.24-19.84-20.48-52.48-14.72-72.32 5.76l-93.44 92.8c-17.92 15.36-39.040 24.32-61.44 30.080-32.64 8.96-83.84 4.48-128-37.12-54.4-51.84-57.6-160.64-3.2-215.68 30.080-30.72 68.48-44.8 99.84-44.8l19.2-1.28 35.2-33.92c9.6-9.6 35.84-33.28 49.92-44.16l19.84-19.84h-108.8zM704 448c0 35.2 28.8 64 64 64s64-28.8 64-64v-128c0-35.2-28.8-64-64-64s-64 28.8-64 64v128zM704 128c0 35.2 28.8 64 64 64s64-28.8 64-64c0-35.2-28.8-64-64-64s-64 28.8-64 64z" />
<glyph unicode="&#xe67a;" d="M128 320v-128h704v128h-704zM128 512v-128h704v128h-704zM128 704v-128h704v128h-704zM128 896v-128h704v128h-704z" />
<glyph unicode="&#xe67b;" d="M346.56 195.008c-63.296 0-137.152 26.368-185.152 74.816-44.544 44.992-68.416 101.504-68.416 171.136 0 67.712 20.544 131.456 65.408 177.984 47.296 49.024 106.24 75.52 170.816 75.968 13.312 0.256 25.024-0.448 37.376-2.176 12.352-1.984 25.664-5.184 38.272-9.152 22.72-7.168 41.344-16.384 61.632-30.4 9.856-6.976 20.544-15.616 28.8-23.232l91.776-92.16c21.12-21.312 24.192-52.928 3.136-74.496-19.968-20.096-52.8-14.4-72.384 5.504l-93.568 93.12c-17.728 15.36-38.656 24.256-61.696 30.4-32.384 8.64-83.2 4.096-127.36-37.696-54.528-51.712-57.728-160.704-3.456-215.616 30.144-30.4 68.288-44.736 99.776-44.736l19.072-1.216 35.584-34.048c9.408-9.28 35.904-32.832 49.536-44.032l19.84-19.968h-108.992zM928.96 504.96c0-31.552-4.608-62.464-13.76-91.52l75.52-60.48c64.896 144.064 33.024 312.192-78.080 420.928-69.568 68.032-171.072 122.112-268.352 122.112s-187.584-41.92-256.128-111.104l-17.792-17.984c-16.512 2.432-40.576 1.984-55.488 1.984-82.88 0-161.728-36.096-221.888-94.016-130.112-125.248-118.336-328.832 2.048-459.904 56.32-61.312 162.624-86.976 245.568-86.976h138.752l0.32 134.72c-17.28 10.176-33.024 21.248-46.656 32.704l-118.72 119.616c-10.24 10.368-21.12 30.144-21.12 44.864s2.496 24.256 12.928 34.496c17.536 17.28 54.4 20.288 74.048 0 0 0 33.28-37.632 74.24-78.4l160.832 64.128 212.928-0.128c0.896 7.616 1.344 15.488 1.344 23.168 0 50.048-19.84 100.48-54.912 135.744-34.944 35.456-84.352 56.32-134.080 56.32-29.248 0-55.36-5.632-81.408-19.52-5.696-3.136-18.432-8.768-18.432-8.768l-75.264 65.92c0 0 7.488 7.36 12.864 11.264 47.936 35.328 102.464 53.568 166.016 53.184 72.384-0.448 145.216-31.168 198.72-86.144 55.104-56.576 85.952-126.656 85.952-206.208v0zM619.008 385.472l-46.656-44.48 116.288-116.352-116.288-116.16 46.656-44.48 115.072 115.2 115.264-115.2 46.656 44.48-116.16 116.16 116.16 116.352-46.656 44.48-115.264-115.072-115.072 115.072z" />
<glyph unicode="&#xe67c;" d="M455.111 682.667h113.778v-341.333h-113.778v341.333zM455.111 284.444h113.778v-113.778h-113.778v113.778zM468.144 910.222l-411.255-853.333h910.222l-413.633 853.333h-85.333z" />
<glyph unicode="&#xe67d;" d="M912.631 773.888c-69.568 68.032-171.072 122.112-268.352 122.112s-187.584-41.92-256.128-111.104l-17.792-17.984c-16.512 2.432-40.576 1.984-55.488 1.984-82.88 0-161.728-36.096-221.888-94.016-130.112-125.248-118.336-328.832 2.048-459.904 56.32-61.312 162.624-86.976 245.568-86.976h291.52l7.296 0.896c94.976 1.344 202.24 39.104 269.632 106.752 158.336 158.848 146.944 397.888 3.584 538.24v0zM346.551 195.008c-63.296 0-137.152 26.368-185.152 74.816-44.544 44.992-68.416 101.504-68.416 171.136 0 67.712 20.544 131.392 65.408 177.984 47.296 49.024 106.24 75.52 170.816 75.968 13.312 0.256 25.024-0.448 37.376-2.176 12.352-1.984 25.664-5.184 38.272-9.152 22.72-7.168 41.344-16.384 61.632-30.4 9.856-6.976 20.544-15.616 28.8-23.232l91.776-92.16c21.12-21.312 24.192-52.992 3.136-74.496-19.968-20.096-52.8-14.4-72.384 5.504l-93.568 93.056c-17.728 15.424-38.656 24.32-61.696 30.464-32.384 8.64-83.2 4.096-127.36-37.696-54.528-51.712-57.728-160.768-3.456-215.616 30.144-30.4 68.288-44.736 99.776-44.736l19.072-1.216 35.584-34.048c9.408-9.28 35.904-32.832 49.536-44.032l19.84-19.968h-108.992zM843.447 295.552c-30.464-30.72-108.416-79.808-204.544-82.816-69.056 0-153.984 38.784-205.888 82.688l-118.72 119.616c-10.24 10.368-21.12 30.144-21.12 44.864s2.496 24.256 12.928 34.496c17.536 17.28 54.4 20.288 74.048 0 0 0 130.048-137.408 142.72-145.408 41.728-25.792 130.368-50.56 190.144-22.016 21.504 10.304 44.672 24.192 61.568 41.28 35.072 35.456 54.912 84.8 54.912 134.912 0 50.048-19.84 100.48-54.912 135.744-34.944 35.456-84.352 56.32-134.080 56.32-29.248 0-55.36-5.632-81.408-19.52-5.696-3.136-18.432-8.768-18.432-8.768l-75.264 65.92c0 0 7.488 7.36 12.864 11.264 47.936 35.328 102.464 53.568 166.016 53.184 72.384-0.448 145.216-31.168 198.72-86.144 55.104-56.576 85.952-126.656 85.952-206.208 0-79.488-29.888-153.408-85.504-209.408v0z" />
<glyph unicode="&#xe67e;" d="M865.091 309.031c-28.467-28.672-110.387-101.171-233.677-101.171-65.536 0-120.218 29.491-169.984 69.632-6.963 5.734-39.526 38.093-39.526 38.093l-29.901 33.792-88.883 79.872c-12.288 12.083-7.782 36.25 4.71 48.333 6.144 6.144 20.275 12.698 28.262 12.698 8.192 0 23.552-4.71 29.696-10.854l121.856-120.218c12.083-11.878 24.781-25.6 39.117-34.202 33.382-20.275 68.198-37.274 108.544-37.274 18.022 0 58.573 5.939 84.173 16.794 24.986 10.445 47.923 25.805 67.994 45.056 86.221 83.558 74.957 222.413 12.902 294.093-38.502 44.442-88.883 69.837-151.962 69.837-41.984 0-88.678-24.576-124.928-48.333-18.227 13.722-47.923 43.827-68.608 53.043 51.405 42.189 115.917 79.462 179.61 79.462 71.27 0 159.744-27.034 214.016-80.282 118.579-116.941 138.445-285.696 16.589-408.371v0zM331.382 210.932c-58.778-4.71-134.963 29.696-177.971 71.885-88.474 87.040-90.522 241.869-14.541 320.922 41.574 43.213 110.592 89.293 188.826 87.654 0.205 0 35.635 0.819 46.694-0.819 11.878-1.638 28.262-5.325 39.526-8.806 21.504-6.554 33.792-28.672 52.224-41.37 8.806-5.734 21.299-16.998 29.082-24.166 2.458-2.048 98.509-95.027 98.509-95.027 12.493-12.288 11.674-40.346-0.819-52.429-6.144-6.144-20.685-14.336-28.672-14.336-8.192 0-28.262 3.277-34.406 9.421l-95.232 93.594c-24.986 23.347-39.322 55.296-67.584 60.416-10.035 1.843-42.803-0.819-44.442-0.819-41.984-1.024-74.342-22.323-105.677-49.971-46.899-41.165-66.97-154.010-11.264-215.245 29.082-32.154 94.413-64.512 132.096-63.488h29.082c0 0 53.453-62.874 68.813-73.728l-104.243-3.686zM901.545 755.495c-64.307 63.693-130.253 105.472-256.205 104.653-109.773-0.614-159.744-40.141-226.918-98.714l-13.517-18.227c-15.974 8.397-57.754 8.192-74.342 8.192-77.619 0-161.178-27.648-216.064-81.715-113.459-111.206-130.253-305.152-17.203-421.274 47.309-48.538 159.949-86.221 240.435-84.582l302.49 0.205c89.498 1.229 199.475 39.117 262.758 101.581 129.638 128 138.854 351.232-1.434 489.882v0z" />
<glyph unicode="&#xe67f;" d="M331.366 210.944c-58.778-4.71-134.963 29.696-177.971 71.885-88.474 87.040-90.522 241.869-14.541 320.922 41.574 43.213 110.592 89.293 188.826 87.654 0.205 0 35.635 0.819 46.694-0.819 11.878-1.638 28.262-5.325 39.526-8.806 21.504-6.554 33.792-28.672 52.224-41.37 8.806-5.734 21.299-16.998 29.082-24.166 2.458-2.048 98.509-95.027 98.509-95.027 12.493-12.288 11.674-40.346-0.819-52.429-6.144-6.144-20.685-14.336-28.672-14.336-8.192 0-28.262 3.277-34.406 9.421l-95.232 93.594c-24.986 23.347-39.322 55.296-67.584 60.416-10.035 1.843-42.803-0.819-44.442-0.819-41.984-1.024-74.342-22.323-105.677-49.971-46.899-41.165-66.97-154.010-11.264-215.245 29.082-32.154 94.413-64.512 132.096-63.488h29.082c0 0 53.453-62.874 68.813-73.728l-104.243-3.686zM640.205 164.045c32.154 0.41 66.97 5.53 101.376 14.95l-2.662 48.128c-31.13-11.469-67.174-19.251-107.52-19.251-65.536 0-120.218 29.491-169.984 69.632-6.963 5.734-39.526 38.093-39.526 38.093l-29.901 33.792-88.883 79.872c-12.288 12.083-7.782 36.25 4.71 48.333 6.144 6.144 20.275 12.698 28.262 12.698 8.192 0 23.552-4.71 29.696-10.854l121.856-120.218c12.083-11.878 24.781-25.6 39.117-34.202 33.382-20.275 68.198-37.274 108.544-37.274 18.022 0 58.573 5.939 84.173 16.794 4.915 2.048 9.83 4.301 14.541 6.758-3.686 71.066-6.349 136.602-6.349 178.586v109.978c0 5.939 0 12.083 7.987 16.794 14.131 7.987 47.309 14.336 72.704 16.998-2.458 3.482-5.12 6.758-7.987 10.035-38.502 44.442-88.883 69.837-151.962 69.837-41.984 0-88.678-24.576-124.928-48.333-18.227 13.722-47.923 43.827-68.608 53.043 51.405 42.189 115.917 79.462 179.61 79.462 71.27 0 159.744-27.034 214.016-80.282 101.171-99.738 130.458-237.363 61.235-351.642-1.434-31.334-3.072-64.922-5.12-98.509 128.205 128 136.806 350.208-3.072 488.243-64.307 63.693-130.253 105.472-256.205 104.653-109.773-0.614-159.744-40.141-226.918-98.714l-13.517-18.227c-15.974 8.397-57.754 8.192-74.342 8.192-77.619 0-161.178-27.648-216.064-81.715-113.459-111.206-130.253-305.152-17.203-421.274 47.309-48.538 159.949-86.221 240.435-84.582l302.49 0.205zM862.208 582.861c3.482-2.253 3.482-5.734 3.482-7.782v-50.176c0-58.368-11.264-219.341-13.926-240.23 0-2.048-0.819-4.096-4.915-4.096h-55.706c-2.867 0-4.096 1.434-4.915 4.096-1.434 19.661-12.493 179.814-12.493 238.182v50.176c0 2.867 0 5.53 3.482 7.578 8.397 4.915 31.334 8.397 41.779 8.397 13.926 0 35.43-2.662 43.213-6.144v0zM768.819 168.55c0 27.853 20.89 47.923 49.562 47.923 29.901 0 50.79-19.456 50.79-47.923 0-29.286-20.89-46.694-50.79-46.694-28.672 0-49.562 18.022-49.562 46.694v0z" />
<glyph unicode="&#xe680;" d="M472.99 17.067c-90.21 0-177.981 31.695-243.81 90.21-4.876 4.876-4.876 12.19-2.438 19.505 4.876 4.876 12.19 4.876 19.505 2.438 60.952-53.638 143.848-82.895 226.743-82.895 216.99 0 394.971 177.981 394.971 397.41 0 43.886-7.314 85.333-19.505 124.343-2.438 7.314 2.438 14.629 7.314 17.067 7.314 2.438 14.629-2.438 17.067-7.314 14.629-41.448 19.505-87.771 19.505-134.095 2.438-236.495-185.295-426.667-419.352-426.667zM841.143 112.152c-2.438 0-4.876 0-7.314 2.438-4.876 4.876-4.876 12.19-2.438 19.505 73.143 85.333 114.59 195.048 114.59 307.2 0 175.543-95.086 334.019-248.686 416.914-7.314 2.438-9.752 12.19-4.876 17.067 2.438 7.314 12.19 9.752 17.067 4.876 163.352-85.333 263.314-256 263.314-438.857 0-119.467-41.448-234.057-119.467-324.267-4.876-2.438-9.752-4.876-12.19-4.876zM312.076 499.81c-9.752 34.133-34.133 63.39-65.829 75.581-14.629 7.314-31.695 9.752-48.762 9.752-14.629 0-29.257-2.438-43.886-9.752-26.819-9.752-51.2-31.695-65.829-58.514-17.067-24.381-26.819-53.638-31.695-82.895-4.876-39.010-4.876-75.581 2.438-112.152 7.314-34.133 21.943-68.267 46.324-92.648 2.438-2.438 4.876-4.876 7.314-4.876-9.752 24.381-14.629 51.2-12.19 78.019s14.629 53.638 29.257 75.581c-12.19-31.695-12.19-68.267-4.876-102.4 4.876-29.257 17.067-60.952 36.571-82.895 9.752-14.629 24.381-24.381 41.448-26.819-12.19 31.695-17.067 65.829-2.438 97.524 7.314 17.067 19.505 29.257 34.133 43.886 12.19 14.629 26.819 26.819 39.010 41.448 17.067 19.505 31.695 43.886 39.010 70.705 7.314 24.381 9.752 53.638 0 80.457 0 4.876 2.438-2.438 0 0 2.438-2.438 2.438-2.438 0 0zM297.448 173.105c9.752-12.19 29.257-21.943 36.571-26.819 173.105-102.4 404.724-9.752 468.114 204.8 58.514 197.486-53.638 392.533-216.99 419.352-4.876 0-92.648-136.533-112.152-158.476-2.438-2.438 12.19 0 43.886-14.629 48.762-24.381 112.152-73.143 114.59-192.61 2.438-165.79-126.781-292.571-316.952-212.114-4.876 2.438-14.629 2.438-19.505-2.438s-4.876-12.19 2.438-17.067zM529.067 994.743c-19.505 14.629-58.514 19.505-73.143-2.438 0 0-231.619-363.276-248.686-380.343 2.438 0 2.438 0 4.876 0 7.314 0 17.067 0 26.819-2.438 7.314-2.438 17.067-4.876 24.381-7.314 21.943-9.752 41.448-26.819 53.638-46.324 24.381 36.571 238.933 382.781 238.933 382.781 7.314 12.19-12.19 43.886-26.819 56.076z" />
<glyph unicode="&#xe681;" d="M384 454.4c-12.8 32-38.4 64-70.4 83.2-12.8 6.4-32 12.8-51.2 12.8s-32 0-44.8-6.4c-32-12.8-51.2-32-70.4-57.6s-32-57.6-32-89.6c-6.4-38.4-6.4-83.2 6.4-115.2 6.4-38.4 25.6-70.4 51.2-96 0 0 6.4-6.4 6.4-6.4-12.8 25.6-12.8 51.2-12.8 83.2s12.8 57.6 32 76.8c-12.8-32-12.8-70.4-6.4-108.8 6.4-32 19.2-64 38.4-89.6 12.8-12.8 25.6-25.6 44.8-25.6-12.8 32-19.2 70.4 0 102.4 6.4 19.2 19.2 32 32 44.8s25.6 25.6 38.4 44.8c19.2 19.2 32 44.8 38.4 76.8 6.4 12.8 12.8 38.4 0 70.4 0 0 0 0 0 0s0 0 0 0zM364.8 108.8c12.8-12.8 32-25.6 38.4-25.6 179.2-108.8 422.4-12.8 492.8 211.2 64 204.8-57.6 409.6-230.4 441.6-6.4 0-96-140.8-115.2-166.4 0 0 12.8 0 44.8-19.2 51.2-25.6 115.2-76.8 121.6-198.4 0-172.8-134.4-307.2-332.8-224-6.4 0-12.8 6.4-19.2 0s0-12.8 0-19.2zM608 972.8c-19.2 12.8-57.6 19.2-76.8 0 0 0-243.2-377.6-262.4-396.8 0 0 0 0 6.4 0s19.2 0 25.6 0c6.4 0 19.2-6.4 25.6-6.4 25.6-12.8 44.8-25.6 57.6-51.2 25.6 38.4 249.6 396.8 249.6 396.8 12.8 12.8-6.4 44.8-25.6 57.6z" />
<glyph unicode="&#xe682;" d="M765.474 325.211l-64.842-66.452c-7.947-8.158-20.85-8.158-28.809 0l-157.736 157.184-157.85-157.184c-7.959-8.158-20.861-8.158-28.809 0l-64.842 66.452c-7.947 8.158-7.947 21.367 0 29.525l156.49 155.87-154.425 153.719c-7.959 8.158-7.959 21.385 0 29.531l66.401 64.87c7.959 8.141 20.85 8.152 28.803 0l154.231-153.458 157.759 157.093c7.953 8.158 20.85 8.146 28.803 0l64.814-66.452c7.959-8.141 7.959-21.367 0-29.525l-156.365-155.779 156.376-155.87c7.942-8.158 7.942-21.367 0-29.525zM695.802 964.432h-367.605l-268.629-268.629v-367.605l268.629-268.629h367.605l268.629 268.629v367.605l-268.629 268.629z" />
<glyph unicode="&#xe683;" d="M791.137 967.111c89.947-129.61 119.086-239.275 119.086-239.275-234.729-243.035-450.002-574.578-504.24-670.948 2.839 3.322-64.649 0-64.649 0l-284.444 344.343 175.286 147.132c0 0 134.918-232.624 141.352-269.17 41.756 109.665 327.663 598.187 417.61 687.918z" />
<glyph unicode="&#xe684;" d="M180.098 65.774c-0.788 0.788 910.572 0 910.572 0 54.351 7.089 85.858 22.843 85.858 22.843 103.975 42.535 176.443 139.422 176.443 252.849 0 143.36-116.578 261.514-265.452 274.905 9.452 24.418 14.178 39.385 14.178 66.954 0 130.757-112.64 236.308-251.274 236.308-102.4 0-190.622-45.686-229.218-128.394-32.295 11.815-73.255 18.905-110.277 18.905-159.114 0-288.295-121.305-288.295-270.966 0-27.569 9.452-55.138 17.329-80.345l-16.542 0.788c-115.791 0-209.526-88.222-209.526-196.923 0-96.098 69.317-179.594 166.203-196.923zM565.335 378.678l-0.788-96.098c0-43.323-26.782-55.138-58.289-25.206l-118.942 108.702c-50.412 49.625-51.2 54.351 0 106.338l119.729 107.914c32.295 29.145 58.289 18.117 58.289-25.994v-96.886h315.077v96.098c0 43.323 25.994 55.138 58.289 25.206l118.942-109.489c54.351-54.351 55.926-49.625 0-106.338l-118.942-106.338c-32.295-29.145-58.289-17.329-58.289 25.994v96.098h-315.077z" horiz-adv-x="1367" />
<glyph unicode="&#xe685;" d="M625.778 910.222h284.444v-568.889h-284.444v568.889zM56.889 910.222h284.444v-568.889h-284.444v568.889zM341.333 910.222h284.444v-568.889h-284.444v568.889zM128 113.778h327.111v56.889h-327.111c-28.444 0-42.667-12.516-42.667-28.444s14.222-28.444 42.667-28.444zM839.111 113.778h-156.444v56.889h156.444c28.444 0 42.667-12.516 42.667-28.444s-14.222-28.444-42.667-28.444zM512 191.716c0 19.911 15.929 35.84 35.84 35.84h42.098c19.911 0 35.84-15.929 35.84-35.84v-98.987c0-19.911-15.929-35.84-35.84-35.84h-42.098c-19.911 0-35.84 15.929-35.84 35.84v98.987z" />
<glyph unicode="&#xe686;" d="M128 113.778h327.111v56.889h-327.111c-28.444 0-42.667-12.516-42.667-28.444s14.222-28.444 42.667-28.444zM839.111 113.778h-156.444v56.889h156.444c28.444 0 42.667-12.516 42.667-28.444s-14.222-28.444-42.667-28.444zM512 191.716c0 19.911 15.929 35.84 35.84 35.84h42.098c19.911 0 35.84-15.929 35.84-35.84v-98.987c0-19.911-15.929-35.84-35.84-35.84h-42.098c-19.911 0-35.84 15.929-35.84 35.84v98.987zM398.222 853.333h56.889v-56.889h-56.889v56.889zM455.111 796.444h56.889v-56.889h-56.889v56.889zM398.222 739.556h56.889v-56.889h-56.889v56.889zM455.111 682.667h56.889v-56.889h-56.889v56.889zM398.222 625.778h56.889v-56.889h-56.889v56.889zM455.111 568.889h56.889v-56.889h-56.889v56.889zM398.222 512h56.889v-56.889h-56.889v56.889zM455.111 455.111h56.889v-56.889h-56.889v56.889zM341.333 910.222h-284.444v-568.889h853.333v568.889h-568.889zM568.889 739.556h-56.889v-56.889h56.889v-56.889h-56.889v-56.889h56.889v-56.889h-56.889v-56.889h56.889v-56.889h-170.667v56.889h-56.889v56.889h56.889v56.889h-56.889v56.889h56.889v56.889h-56.889v56.889h56.889v56.889h-56.889v56.889h170.667v-56.889h56.889v-56.889zM853.333 398.222h-227.556v455.111h227.556v-455.111z" />
<glyph unicode="&#xe687;" d="M1316.172 996.324c-268.343 0-485.902-217.558-485.902-485.93 0-268.343 217.558-485.902 485.902-485.902 268.371 0 485.93 217.558 485.93 485.902 0 268.371-217.558 485.93-485.93 485.93v0zM1514.247 455.597h-143.249v-143.249c0-30.139-24.659-54.826-54.826-54.826-30.139 0-54.798 24.687-54.798 54.826v143.249h-143.249c-30.139 0-54.826 24.659-54.826 54.798 0 30.166 24.687 54.826 54.826 54.826h143.249v143.249c0 30.139 24.659 54.798 54.798 54.798 30.166 0 54.826-24.659 54.826-54.798v-143.249h143.249c30.139 0 54.826-24.659 54.826-54.826 0-30.139-24.687-54.798-54.826-54.798v0z" horiz-adv-x="2657" />
<glyph unicode="&#xe688;" d="M603.807 477.207c0 0-111.195 284.858-123.235 327.447h-2.125c-12.748-43.985-122.527-327.447-122.527-327.447h247.887zM340.338 407.389l-101.28-280.669h-109.779l286.133 768h128.193l289.674-768h-113.32l-96.322 280.669h-283.3z" />
<glyph unicode="&#xe689;" d="M704 896h-286.080c-141.44 0-257.92-85.12-257.92-224s116.48-224 257.92-224h94.080v-320h64v704h64v-704h64v768z" />
<glyph unicode="&#xe68a;" d="M0 64h960v896h-960v-896zM64 896h832v-768h-832v768zM252.16 346.24c-3.2 3.2-5.12 6.4-5.12 13.44l-0.64 54.4c0 1.92 3.2 4.48 5.76 2.56 26.24-19.2 64-38.4 103.040-38.4 34.56 0 49.92 16.64 49.92 36.48 0 20.48-11.52 32.64-56.96 53.12-73.6 33.28-99.2 68.48-99.2 125.44 0 55.040 44.16 111.36 124.16 111.36 40.32 0 80-8.96 94.080-20.48 3.2-2.56 3.84-5.12 3.84-10.24v-51.84c0-2.56-3.2-5.12-5.12-3.84-23.040 13.44-56.96 24.32-93.44 24.32s-51.84-25.6-51.84-42.88c0-19.2 9.6-35.84 55.68-56.96 88.96-40.32 103.68-72.96 103.68-118.4 0-73.6-60.16-110.080-124.8-110.080-35.84 0-78.080 12.16-103.040 32v0zM736 333.44c0-3.84-1.92-6.4-4.48-7.68-14.72-8.32-35.2-11.52-53.76-11.52-42.24 0-70.4 23.040-70.4 81.28v152.32l-35.2 3.2c-1.92 0-3.84 1.92-3.84 5.12v42.24c0 3.2 1.28 4.48 4.48 4.48h34.56c1.92 21.76 4.48 49.92 7.040 64 1.28 4.48 2.56 5.12 5.76 6.4l57.6 10.88c4.48 1.28 7.040 0.64 7.040-4.48-1.28-17.28-2.56-55.68-3.2-76.8h53.12c4.48 0 5.76-1.28 5.76-5.76v-40.96c0-3.84-1.28-5.12-5.76-5.76l-53.76-3.2v-133.12c0-21.76 5.76-35.84 27.52-35.84 8.96 0 16 1.28 23.040 3.2 2.56 0.64 4.48-0.64 4.48-3.84v-44.16z" />
<glyph unicode="" d="M0 64h960v896h-960v-896zM64 896h832v-768h-832v768zM252.16 346.24c-3.2 3.2-5.12 6.4-5.12 13.44l-0.64 54.4c0 1.92 3.2 4.48 5.76 2.56 26.24-19.2 64-38.4 103.040-38.4 34.56 0 49.92 16.64 49.92 36.48 0 20.48-11.52 32.64-56.96 53.12-73.6 33.28-99.2 68.48-99.2 125.44 0 55.040 44.16 111.36 124.16 111.36 40.32 0 80-8.96 94.080-20.48 3.2-2.56 3.84-5.12 3.84-10.24v-51.84c0-2.56-3.2-5.12-5.12-3.84-23.040 13.44-56.96 24.32-93.44 24.32s-51.84-25.6-51.84-42.88c0-19.2 9.6-35.84 55.68-56.96 88.96-40.32 103.68-72.96 103.68-118.4 0-73.6-60.16-110.080-124.8-110.080-35.84 0-78.080 12.16-103.040 32v0zM736 333.44c0-3.84-1.92-6.4-4.48-7.68-14.72-8.32-35.2-11.52-53.76-11.52-42.24 0-70.4 23.040-70.4 81.28v152.32l-35.2 3.2c-1.92 0-3.84 1.92-3.84 5.12v42.24c0 3.2 1.28 4.48 4.48 4.48h34.56c1.92 21.76 4.48 49.92 7.040 64 1.28 4.48 2.56 5.12 5.76 6.4l57.6 10.88c4.48 1.28 7.040 0.64 7.040-4.48-1.28-17.28-2.56-55.68-3.2-76.8h53.12c4.48 0 5.76-1.28 5.76-5.76v-40.96c0-3.84-1.28-5.12-5.76-5.76l-53.76-3.2v-133.12c0-21.76 5.76-35.84 27.52-35.84 8.96 0 16 1.28 23.040 3.2 2.56 0.64 4.48-0.64 4.48-3.84v-44.16z" />
</font>
</defs>
</svg>
